SplineFontDB: 3.2
FontName: MandoAF-Regular
FullName: Mando AF Regular
FamilyName: Mando AF
Weight: Regular
Copyright: CC0 - public domain
Version: 002
ItalicAngle: 0
UnderlinePosition: -100
UnderlineWidth: 50
Ascent: 1000
Descent: 0
InvalidEm: 0
sfntRevision: 0x00010000
LayerCount: 2
Layer: 0 0 "Back" 1
Layer: 1 0 "Fore" 0
XUID: [1021 178 1911899458 30621]
StyleMap: 0x0000
FSType: 0
OS2Version: 4
OS2_WeightWidthSlopeOnly: 0
OS2_UseTypoMetrics: 1
CreationTime: 1587621776
ModificationTime: 1606857014
PfmFamily: 17
TTFWeight: 400
TTFWidth: 5
LineGap: 90
VLineGap: 0
Panose: 2 0 5 3 0 0 0 0 0 0
OS2TypoAscent: 800
OS2TypoAOffset: 0
OS2TypoDescent: -200
OS2TypoDOffset: 0
OS2TypoLinegap: 90
OS2WinAscent: 802
OS2WinAOffset: 0
OS2WinDescent: 220
OS2WinDOffset: 0
HheadAscent: 802
HheadAOffset: 0
HheadDescent: -220
HheadDOffset: 0
OS2SubXSize: 650
OS2SubYSize: 699
OS2SubXOff: 0
OS2SubYOff: 140
OS2SupXSize: 650
OS2SupYSize: 699
OS2SupXOff: 0
OS2SupYOff: 479
OS2StrikeYSize: 49
OS2StrikeYPos: 258
OS2CapHeight: 796
OS2XHeight: 796
OS2Vendor: 'PfEd'
OS2CodePages: 00000001.00000000
OS2UnicodeRanges: 00000001.00000000.00000000.00000000
Lookup: 258 0 0 "'kern' Horizontal Kerning in Latin lookup 0" { "'kern' Horizontal Kerning in Latin lookup 0-1" [150,0,6] } ['kern' ('DFLT' <'dflt' > 'latn' <'dflt' > ) ]
MarkAttachClasses: 1
DEI: 91125
KernClass2: 37 38 "'kern' Horizontal Kerning in Latin lookup 0-1"
 6 exclam
 20 quotedbl quotesingle
 10 numbersign
 10 dollar W w
 9 ampersand
 5 comma
 6 hyphen
 6 period
 33 zero three seven nine E J N e j n
 11 one O P o p
 3 two
 4 four
 12 five six M m
 5 eight
 5 colon
 9 semicolon
 8 question
 6 at T t
 3 A a
 3 B b
 3 C c
 3 D d
 3 F f
 3 G g
 3 H h
 3 I i
 7 K Q k q
 3 L l
 3 R r
 3 S s
 3 U u
 3 V v
 3 X x
 3 Y y
 3 Z z
 10 underscore
 6 exclam
 20 quotedbl quotesingle
 14 numbersign S s
 6 dollar
 13 ampersand B b
 5 comma
 6 hyphen
 6 period
 4 zero
 9 one seven
 8 two nine
 5 three
 24 four six C H J Y c h j y
 4 five
 5 eight
 5 colon

StartChar: .notdef
Encoding: 1114112 -1 0
Width: 504
Flags: W
HStem: 322.725 76.21<379.185 413> 562.725 76.21<379.185 413> 802.725 76.21<379.185 413>
CounterMasks: 1 e0
LayerCount: 2
Fore
SplineSet
378.088867188 878.934570312 m 5
 388.844726562 872.337890625 408.486328125 860.12890625 421.73828125 851.80078125 c 4
 442.799804688 838.556640625 446.54296875 834.62890625 451.505859375 820.548828125 c 4
 454.626953125 811.693359375 455.743164062 803.223632812 453.631835938 802.724609375 c 4
 406.359375 791.525390625 208.076171875 731.314453125 148.583984375 710.217773438 c 5
 98.0924518688 690.893295296 55.7104024782 676.234081209 50.5558793178 676.234081209 c 0
 50.2561316218 676.234081209 50.0822761466 676.283654232 50.0400390625 676.384765625 c 4
 49.2685546875 678.217773438 59.3271484375 697.454101562 96.1484375 758.549804688 c 5
 154.544921875 802.921875 242.274414062 848.711914062 378.088867188 878.934570312 c 5
378.088867188 398.934570312 m 1
 388.844726562 392.337890625 408.486328125 380.12890625 421.73828125 371.80078125 c 0
 442.799804688 358.556640625 446.54296875 354.62890625 451.505859375 340.548828125 c 0
 454.626953125 331.693359375 455.743164062 323.223632812 453.631835938 322.724609375 c 0
 406.359375 311.525390625 208.076171875 251.314453125 148.583984375 230.217773438 c 1
 98.0924518688 210.893295296 55.7104024782 196.234081209 50.5558793178 196.234081209 c 0
 50.2561316218 196.234081209 50.0822761466 196.283654232 50.0400390625 196.384765625 c 0
 49.2685546875 198.217773438 59.3271484375 217.454101562 96.1484375 278.549804688 c 1
 154.544921875 322.921875 242.274414062 368.711914062 378.088867188 398.934570312 c 1
378.088867188 638.934570312 m 1
 388.844726562 632.337890625 408.486328125 620.12890625 421.73828125 611.80078125 c 0
 442.799804688 598.556640625 446.54296875 594.62890625 451.505859375 580.548828125 c 0
 454.626953125 571.693359375 455.743164062 563.223632812 453.631835938 562.724609375 c 0
 406.359375 551.525390625 208.076171875 491.314453125 148.583984375 470.217773438 c 1
 98.0924518688 450.893295296 55.7104024782 436.234081209 50.5558793178 436.234081209 c 0
 50.2561316218 436.234081209 50.0822761466 436.283654232 50.0400390625 436.384765625 c 0
 49.2685546875 438.217773438 59.3271484375 457.454101562 96.1484375 518.549804688 c 1
 154.544921875 562.921875 242.274414062 608.711914062 378.088867188 638.934570312 c 1
EndSplineSet
EndChar

StartChar: zero
Encoding: 48 48 2
Width: 490
Flags: W
VStem: 90.7861 60.7627<711.411 937.732> 219.571 109.848<631.816 911.006>
LayerCount: 2
Fore
SplineSet
107.680664062 321.012695312 m 6
 79.6982421875 303.223632812 55.048828125 288.530273438 52.8916015625 288.372070312 c 4
 50.2158203125 288.170898438 49.4267578125 296.670898438 50.400390625 315.276367188 c 4
 55.8154296875 419.065429688 83.234375 782.483398438 90.7861328125 937.732421875 c 5
 117.040039062 957.030273438 l 6
 131.479492188 967.64453125 144.356445312 976.329101562 145.663085938 976.329101562 c 4
 146.970703125 976.329101562 148.830078125 945.407226562 151.548828125 838.907226562 c 5
 153.387695312 641.026367188 158.56640625 575.357421875 158.56640625 353.36328125 c 5
 107.680664062 321.012695312 l 6
275.655273438 958.473632812 m 1
 331.716796875 992.104492188 l 1
 385.19921875 971.18359375 l 2
 414.611328125 959.68359375 439.471679688 949.622070312 440.436523438 948.833007812 c 0
 441.401367188 948.051757812 435.875 941.078125 428.155273438 933.341796875 c 0
 414.26953125 919.4296875 413.681640625 919.227539062 372.014648438 913.797851562 c 0
 348.857421875 910.780273438 329.690429688 908.086914062 329.418945312 907.806640625 c 0
 329.155273438 907.525390625 317.690429688 718.61328125 303.9453125 488 c 0
 290.208007812 257.385742188 278.190429688 60.412109375 277.243164062 50.2802734375 c 0
 275.532226562 31.9912109375 275.331054688 31.71875 249.208007812 12.560546875 c 0
 234.734375 1.947265625 222.102539062 -6.7373046875 221.137695312 -6.7373046875 c 0
 220.264021285 -6.7373046875 219.570511018 165.127711632 219.570511018 733.649134922 c 0
 219.570511018 792.97554162 219.578062902 856.621283369 219.59375 924.841796875 c 1
 275.655273438 958.473632812 l 1
EndSplineSet
EndChar

StartChar: one
Encoding: 49 49 3
Width: 601
Flags: W
VStem: 161.964 108.541<77.9497 361.939> 332.348 57.791<719.672 771.873>
LayerCount: 2
Fore
SplineSet
497.375976562 16.2451171875 m 2
 446.682617188 -4.03515625 l 1
 432.463867188 4.1484375 l 2
 424.638671875 8.6484375 398.928710938 23.7626953125 332.419921875 63.1572265625 c 1
 332.349609375 528.947265625 l 2
 332.348632812 536.06640625 332.34765625 543.150390625 332.34765625 550.194335938 c 0
 332.34765625 796.619140625 333.086914062 994.736328125 334.025390625 994.736328125 c 0
 334.990234375 994.736328125 347.62109375 986.051757812 362.094726562 975.438476562 c 0
 388.217773438 956.280273438 388.419921875 955.999023438 390.138671875 937.71875 c 0
 391.0859375 927.586914062 403.112304688 730.61328125 416.849609375 499.999023438 c 0
 430.5859375 269.385742188 442.051757812 80.4736328125 442.314453125 80.1923828125 c 0
 442.577148438 79.912109375 461.744140625 77.21875 527.0078125 68.71875 c 1
 541.04296875 54.1396484375 l 2
 548.76171875 46.1220703125 553.499023438 38.876953125 551.569335938 38.04296875 c 0
 549.638671875 37.2099609375 525.252929688 27.39453125 497.375976562 16.2451171875 c 2
214.419921875 29.525390625 m 5
 158.358398438 -4.10546875 l 5
 104.875976562 16.8154296875 l 6
 75.4638671875 28.3154296875 50.603515625 38.376953125 49.638671875 39.166015625 c 4
 48.673828125 39.947265625 54.2001953125 46.859375 61.919921875 54.525390625 c 4
 75.7001953125 68.2099609375 76.7265625 68.5693359375 118.981445312 74.578125 c 4
 155.360351562 79.7587890625 161.963867188 81.6474609375 161.963867188 86.8544921875 c 0
 161.963867188 90.666015625 172.961914062 277.59375 186.419921875 502.630859375 c 4
 199.90234375 727.938476562 211.744140625 922.1484375 214.551757812 956.139648438 c 5
 240.8671875 975.438476562 l 6
 255.340820312 986.051757812 267.97265625 994.736328125 268.9375 994.736328125 c 4
 269.811523438 994.736328125 270.504882812 822.87109375 270.504882812 254.349609375 c 0
 270.504882812 195.0234375 270.497070312 131.377929688 270.481445312 63.1572265625 c 5
 214.419921875 29.525390625 l 5
EndSplineSet
EndChar

StartChar: two
Encoding: 50 50 4
Width: 370
Flags: W
VStem: 49.9998 105.618<78.5653 358.292> 57.4053 84.6572<278.652 719.817> 68.584 59.0508<777.407 970.113> 211.455 108.166<679.583 910.334> 214.314 91.8945<535.439 746.017> 217.174 62.0615<195.965 423.487>
LayerCount: 2
Fore
SplineSet
262.340820312 942.684570312 m 6x10
 290.323242188 960.473632812 314.97265625 975.166992188 317.129882812 975.325195312 c 4
 319.805664062 975.526367188 320.594726562 967.026367188 319.62109375 948.420898438 c 4x10
 318.840820312 933.46484375 312.805664062 810.17578125 306.208984375 650 c 4x08
 286.077148438 320.526367188 l 4
 284.65625 300.263671875 282.541992188 263.947265625 279.235351562 195.96484375 c 5
 252.981445312 176.666992188 l 6
 238.541992188 166.052734375 225.665039062 157.368164062 224.358398438 157.368164062 c 4
 223.05078125 157.368164062 221.19140625 188.290039062 218.47265625 294.790039062 c 5
 217.173828125 434.561523438 l 5x04
 214.314453125 490.3515625 l 6x08
 212.744140625 609.03515625 211.455078125 736.587890625 211.455078125 910.333984375 c 5
 262.340820312 942.684570312 l 6x10
68.583984375 993.708984375 m 0x20
 68.6896269324 994.082124321 68.9799391416 994.291618599 69.5135338981 994.291618599 c 0
 72.9753156291 994.291618599 86.6767968463 985.474058634 126.623046875 955.319335938 c 1
 127.634765625 899.383789062 l 2x20
 128.198242188 868.610351562 134.686523438 675.163085938 142.0625 469.491210938 c 0x40
 149.4375 263.8203125 155.534179688 92.396484375 155.618164062 88.5517578125 c 0
 155.743164062 82.345703125 160.376953125 80.8798828125 196.98828125 75.5126953125 c 0
 235.23046875 69.912109375 239.1953125 68.5908203125 251.704101562 57.2333984375 c 0
 259.122070312 50.509765625 265.146484375 43.427734375 265.091796875 41.50390625 c 0
 265.0390625 39.580078125 240.755859375 29.3203125 157.26171875 -0.5947265625 c 1
 106.88671875 30.4541015625 l 2
 79.1806640625 47.5341796875 54.4794921875 63.2333984375 52.00390625 65.3408203125 c 0
 50.7025804749 66.4469122958 49.999808412 78.6157557782 49.999808412 110.772649624 c 0x80
 49.999808412 168.530508457 52.2670013215 290.771246522 57.4052734375 529.211914062 c 0x40
 62.859375 782.23046875 67.8916015625 991.2578125 68.583984375 993.708984375 c 0x20
EndSplineSet
EndChar

StartChar: three
Encoding: 51 51 5
Width: 602
Flags: W
VStem: 211.861 57.7909<218.758 270.959> 331.495 108.541<628.692 912.681>
LayerCount: 2
Fore
SplineSet
104.624023438 974.385742188 m 2
 155.317382812 994.666015625 l 1
 169.536132812 986.482421875 l 2
 177.361328125 981.982421875 203.071289062 966.868164062 269.580078125 927.473632812 c 1
 269.650390625 461.68359375 l 2
 269.651611899 454.564052276 269.652216217 447.480484363 269.652216217 440.43638916 c 0
 269.652216217 194.011685788 268.912639366 -4.10546875 267.974609375 -4.10546875 c 0
 267.009765625 -4.10546875 254.37890625 4.5791015625 239.905273438 15.1923828125 c 0
 213.782226562 34.3505859375 213.580078125 34.6318359375 211.861328125 52.912109375 c 0
 210.9140625 63.0439453125 198.887695312 260.017578125 185.150390625 490.631835938 c 0
 171.4140625 721.245117188 159.948242188 910.157226562 159.685546875 910.438476562 c 0
 159.422851562 910.71875 140.255859375 913.412109375 74.9921875 921.912109375 c 1
 60.95703125 936.491210938 l 2
 53.23828125 944.508789062 48.5009765625 951.75390625 50.4306640625 952.587890625 c 0
 52.361328125 953.420898438 76.7470703125 963.236328125 104.624023438 974.385742188 c 2
387.580078125 961.10546875 m 5
 443.641601562 994.736328125 l 5
 497.124023438 973.815429688 l 6
 526.536132812 962.315429688 551.396484375 952.25390625 552.361328125 951.46484375 c 4
 553.326171875 950.68359375 547.799804688 943.771484375 540.080078125 936.10546875 c 4
 526.299804688 922.420898438 525.2734375 922.061523438 483.018554688 916.052734375 c 4
 446.639373458 910.871628863 440.036180078 908.983472715 440.036180078 903.77616646 c 0
 440.036180078 899.96478104 429.037606645 713.037343984 415.580078125 488 c 4
 402.09765625 262.692382812 390.255859375 68.482421875 387.448242188 34.4912109375 c 5
 361.1328125 15.1923828125 l 6
 346.659179688 4.5791015625 334.02734375 -4.10546875 333.0625 -4.10546875 c 4
 332.188825973 -4.10546875 331.495315705 167.75954757 331.495315705 736.280970859 c 0
 331.495315705 795.607377557 331.502867589 859.253119306 331.518554688 927.473632812 c 5
 387.580078125 961.10546875 l 5
EndSplineSet
EndChar

StartChar: four
Encoding: 52 52 6
Width: 370
Flags: W
VStem: 49.9998 105.618<635.405 915.132> 57.4053 84.6572<273.88 715.045> 68.584 58.0391<22.5386 216.29> 211.455 108.166<83.3633 314.114> 214.314 91.8945<85.3709 458.258> 217.174 62.0615<570.21 797.732>
LayerCount: 2
Fore
SplineSet
262.340820312 51.0126953125 m 6x10
 211.455078125 83.36328125 l 5x10
 211.455078125 257.109375 212.744140625 384.662109375 214.314453125 503.345703125 c 6x08
 217.173828125 559.135742188 l 5
 218.47265625 698.907226562 l 5
 221.19140625 805.407226562 223.05078125 836.329101562 224.358398438 836.329101562 c 4
 225.665039062 836.329101562 238.541992188 827.64453125 252.981445312 817.030273438 c 6
 279.235351562 797.732421875 l 5x04
 282.541992188 729.75 284.65625 693.43359375 286.077148438 673.170898438 c 4
 306.208984375 343.697265625 l 4x08
 312.805664062 183.521484375 318.840820312 60.232421875 319.62109375 45.2763671875 c 4
 320.594726562 26.6708984375 319.805664062 18.1708984375 317.129882812 18.3720703125 c 4
 314.97265625 18.5302734375 290.323242188 33.2236328125 262.340820312 51.0126953125 c 6x10
68.583984375 -0.01171875 m 0x20
 67.8916015625 2.439453125 62.859375 211.466796875 57.4052734375 464.485351562 c 0x40
 52.2670013215 702.926019103 49.999808412 825.166757168 49.999808412 882.924616001 c 0x80
 49.999808412 915.081509847 50.7025804749 927.250353329 52.00390625 928.356445312 c 0
 54.4794921875 930.463867188 79.1806640625 946.163085938 106.88671875 963.243164062 c 2
 157.26171875 994.291992188 l 1
 240.755859375 964.376953125 265.0390625 954.1171875 265.091796875 952.193359375 c 0
 265.146484375 950.26953125 259.122070312 943.1875 251.704101562 936.463867188 c 0
 239.1953125 925.106445312 235.23046875 923.78515625 196.98828125 918.184570312 c 0
 160.376953125 912.817382812 155.743164062 911.3515625 155.618164062 905.145507812 c 0
 155.534179688 901.30078125 149.4375 729.876953125 142.0625 524.206054688 c 0x40
 134.686523438 318.534179688 128.198242188 125.086914062 127.634765625 94.3134765625 c 2
 126.623046875 38.3779296875 l 1
 86.6767968463 8.22320699053 72.9753156291 -0.59435297413 69.5135338981 -0.59435297413 c 0
 68.9799391416 -0.59435297413 68.6896269324 -0.384858696429 68.583984375 -0.01171875 c 0x20
EndSplineSet
EndChar

StartChar: five
Encoding: 53 53 7
Width: 576
Flags: W
HStem: -0.254883 80.538<94.1978 190.373 385.208 477.125>
VStem: 177.017 83.916<262.74 728.025> 194.482 59.5186<80.1816 320.394> 308.024 89.2115<325.05 765.653> 322.104 57.6924<80.1816 302.627>
LayerCount: 2
Fore
SplineSet
103.573242188 976.763671875 m 0xc0
 131.458007812 987.358398438 155.880859375 995.688476562 157.84765625 995.278320312 c 0
 159.823242188 994.858398438 185.443359375 979.569335938 268.170898438 928.083984375 c 1
 267.978515625 908.853515625 l 2
 267.874023438 898.276367188 264.700195312 704.745117188 260.932617188 478.783203125 c 0xc0
 257.157226562 252.821289062 254.044921875 67.55078125 254.000976562 67.0693359375 c 0
 253.958007812 66.5888671875 232.681640625 51.248046875 206.719726562 32.978515625 c 0
 180.7578125 14.7099609375 158.336914062 -0.2470703125 156.89453125 -0.2548828125 c 0
 155.452148438 -0.2724609375 132.244140625 7.734375 105.321289062 17.5244140625 c 0
 78.3984375 27.3232421875 54.560546875 36.37890625 52.3583984375 37.6552734375 c 0
 51.8523730721 37.9461206698 51.55512352 38.3955985304 51.55512352 39.102197046 c 0
 51.55512352 42.0706146342 56.8010930006 49.5767921595 73.8525390625 68.9228515625 c 1
 115.810546875 74.9716796875 l 2
 136.439014578 77.9492812843 160.315151365 80.2831233919 185.472658061 80.2831233919 c 0
 188.458953643 80.2831233919 191.463304534 80.2502380879 194.482421875 80.181640625 c 1xa0
 194.420898438 96.7900390625 l 2
 194.385742188 105.924804688 186.553710938 292.76953125 177.016601562 512 c 0
 167.48046875 731.23046875 158.458984375 911.553710938 156.973632812 912.708007812 c 0
 155.487304688 913.870117188 136.177734375 917.3671875 114.0625 920.469726562 c 0
 75.2421875 925.93359375 73.3984375 926.580078125 60.75 939.342773438 c 0
 53.5380859375 946.615234375 48.8173828125 953.669921875 50.259765625 955.033203125 c 0
 51.693359375 956.387695312 75.6884765625 966.169921875 103.573242188 976.763671875 c 0xc0
361.833007812 963.6171875 m 0
 389.98046875 981.239257812 413.799804688 995.802734375 414.76171875 995.986328125 c 0
 415.723632812 996.161132812 440.8984375 987.384765625 470.706054688 976.475585938 c 0
 500.513671875 965.56640625 525.688476562 956.064453125 526.649414062 955.356445312 c 0
 527.611328125 954.6484375 522.104492188 947.76953125 514.412109375 940.059570312 c 0
 500.732421875 926.361328125 499.551757812 925.93359375 460.216796875 920.435546875 c 0
 438.100585938 917.349609375 418.783203125 913.870117188 417.296875 912.708007812 c 0
 415.801757812 911.553710938 406.78125 731.23046875 397.235351562 512 c 0x90
 387.69921875 292.76953125 379.875 105.924804688 379.796875 80.181640625 c 1
 396.405273438 80.767578125 l 2
 396.914839378 80.7856095903 397.480438255 80.7944486032 398.098405654 80.7944486032 c 0
 408.558469375 80.7944486032 434.02256062 78.2619961492 456.719726562 74.9111328125 c 0
 500.338867188 68.4775390625 500.452148438 68.43359375 526.518554688 39.9716796875 c 1
 473.2578125 19.849609375 l 2
 443.974609375 8.7744140625 418.826171875 -0.2724609375 417.383789062 -0.2548828125 c 0
 415.94140625 -0.2470703125 393.9140625 14.5693359375 322.104492188 65.583984375 c 1x88
 319.456054688 143.686523438 l 2
 318.004882812 186.641601562 314.438476562 380.706054688 311.536132812 574.936523438 c 0
 309.35130966 721.593975786 308.023899289 848.565453374 308.023899289 902.38053276 c 0x90
 308.023899289 919.837526367 308.163579905 929.596425255 308.458984375 929.83203125 c 0
 309.674804688 930.793945312 333.686523438 945.995117188 361.833007812 963.6171875 c 0
EndSplineSet
EndChar

StartChar: six
Encoding: 54 54 8
Width: 321
Flags: W
HStem: -0.254883 80.4365<128.532 221.751>
VStem: 59.8428 82.0195<269.478 611.133> 64.9297 59.4932<80.1816 302.627>
LayerCount: 2
Fore
SplineSet
103.8203125 961.860351562 m 2xc0
 133.41796875 980.444335938 158.426757812 995.802734375 159.387695312 996.002929688 c 0
 160.349609375 996.204101562 184.737304688 987.611328125 213.583984375 976.912109375 c 0
 242.4296875 966.221679688 267.211914062 956.361328125 268.645507812 955.015625 c 0
 270.087890625 953.661132812 265.3671875 946.615234375 258.155273438 939.342773438 c 0
 245.506835938 926.580078125 243.662109375 925.93359375 204.842773438 920.469726562 c 0
 182.727539062 917.3671875 163.409179688 913.870117188 161.922851562 912.708007812 c 0
 160.428710938 911.553710938 151.407226562 731.23046875 141.862304688 512 c 0xc0
 132.325195312 292.76953125 124.501953125 105.924804688 124.422851562 80.181640625 c 1
 141.03125 80.767578125 l 2
 141.540815941 80.7856095903 142.106414817 80.7944486032 142.724382216 80.7944486032 c 0
 153.184445937 80.7944486032 178.648537183 78.2619961492 201.345703125 74.9111328125 c 0
 244.96484375 68.4775390625 245.079101562 68.43359375 271.145507812 39.9716796875 c 1
 217.884765625 19.849609375 l 2
 188.6015625 8.7744140625 163.453125 -0.2724609375 162.010742188 -0.2548828125 c 0
 160.568359375 -0.2470703125 138.146484375 14.7099609375 112.185546875 32.978515625 c 0
 86.2236328125 51.248046875 64.9560546875 66.5888671875 64.9296875 67.0693359375 c 0xa0
 64.904296875 67.55078125 62.61328125 204.044921875 59.8427734375 370.391601562 c 0
 57.0712890625 536.737304688 53.7236328125 730.26953125 50 928.083984375 c 1
 103.8203125 961.860351562 l 2xc0
EndSplineSet
EndChar

StartChar: seven
Encoding: 55 55 9
Width: 602
Flags: W
VStem: 161.115 108.729<77.1919 359.914> 331.423 55.3154<74.3682 293.601> 331.633 108.456<638.06 913.701>
LayerCount: 2
Fore
SplineSet
387.694335938 962.052734375 m 5xa0
 443.755859375 995.68359375 l 5
 497.23828125 974.762695312 l 6
 526.650390625 963.262695312 551.510742188 953.201171875 552.475585938 952.412109375 c 4
 553.440429688 951.630859375 547.9140625 944.71875 540.194335938 937.052734375 c 4
 526.4140625 923.368164062 525.387695312 923.008789062 483.1328125 917 c 4
 444.501953125 911.5 440.106445312 910.157226562 440.088867188 903.859375 c 4xa0
 440.080078125 900 428.282226562 712.89453125 413.870117188 488.0703125 c 4
 399.458007812 263.245117188 387.255859375 79.1572265625 386.73828125 78.9912109375 c 4
 386.229492188 78.82421875 373.571289062 69.7451171875 331.422851562 38.947265625 c 5xc0
 331.6328125 928.420898438 l 5
 387.694335938 962.052734375 l 5xa0
241.01953125 920.359375 m 2
 255.905273438 931.359375 268.484375 940.438476562 268.966796875 940.53515625 c 0
 269.44921875 940.622070312 269.84375 743.333007812 269.84375 63.5087890625 c 1
 157.5625 -3.158203125 l 1
 105.80859375 16.595703125 l 2
 77.34375 27.4560546875 52.4755859375 37.71875 50.544921875 39.4033203125 c 0
 50.1982072325 39.7062378149 50.0001288592 40.113484481 50.0001288592 40.6711784508 c 0
 50.0001288592 43.6823660447 55.7747139931 51.0795486808 75.1064453125 70.1220703125 c 1
 118.115234375 74.7099609375 l 2
 151.985427921 78.3252692845 161.115229112 80.4183326295 161.115229112 84.5650727422 c 0
 161.115229112 87.5960062274 172.111817586 262.803117189 185.5625 474.03515625 c 0
 199.01953125 685.350585938 210.905273438 867.71875 213.94921875 900.350585938 c 1
 241.01953125 920.359375 l 2
EndSplineSet
EndChar

StartChar: eight
Encoding: 56 56 10
Width: 321
Flags: W
VStem: 50 109.123<62.3682 329.656> 61.0527 82.333<266.214 760.733>
LayerCount: 2
Fore
SplineSet
70.412109375 926.385742188 m 0x40
 71.9800122026 961.133455329 73.8440282275 977.623827665 76.2189553535 977.623827665 c 0
 78.1242429571 977.623827665 90.2774505686 967.68802186 101.333007812 959.4296875 c 0
 112.912109375 950.771484375 123.552734375 942.762695312 124.982421875 941.623046875 c 0
 126.412109375 940.491210938 134.693359375 748.508789062 143.385742188 515 c 0x40
 152.087890625 281.491210938 159.184570312 84.123046875 159.123046875 62.3681640625 c 1
 203.25390625 55.3505859375 l 2
 245.736328125 48.5966796875 247.868164062 47.841796875 260.32421875 35.236328125 c 0
 267.438476562 28.03515625 272.473632812 21.359375 271.508789062 20.4033203125 c 0
 270.543945312 19.447265625 246.46484375 9.9384765625 218 -0.7109375 c 0
 189.53515625 -11.3681640625 164.666992188 -20.087890625 162.736328125 -20.087890625 c 0
 160.806640625 -20.087890625 134.649414062 -4.693359375 50 48.3330078125 c 1x80
 52.052734375 100.96484375 l 2
 53.1845703125 129.912109375 57.236328125 315.438476562 61.052734375 513.245117188 c 0
 64.8681640625 711.052734375 69.0791015625 896.96484375 70.412109375 926.385742188 c 0x40
EndSplineSet
EndChar

StartChar: nine
Encoding: 57 57 11
Width: 482
Flags: W
HStem: 1.01367 82.168<158.741 223.962> 919.694 75.6659<323.907 388.646>
VStem: 50 108.741<83.1816 349.535> 61.0137 82.0635<286.314 779.105> 214.23 109.65<653.748 916.667> 226.644 82.4033<237.929 614.514>
LayerCount: 2
Fore
SplineSet
70.3408203125 944.178710938 m 0xd0
 71.9031297485 978.80523704 73.760662841 995.236709999 76.1273676933 995.236709999 c 0
 78.0259299827 995.236709999 90.1361890247 985.336457151 101.154296875 977.106445312 c 0
 112.692382812 968.479492188 123.303710938 960.498046875 124.737304688 959.362304688 c 0
 126.170898438 958.234375 134.422851562 766.922851562 143.077148438 534.23046875 c 0xd0
 151.721679688 301.538085938 158.793945312 104.860351562 158.741210938 83.181640625 c 1
 202.71875 76.1884765625 l 2
 245.052734375 69.4580078125 247.176757812 68.7060546875 259.588867188 56.1455078125 c 0
 266.678710938 48.96875 271.6953125 42.31640625 270.734375 41.36328125 c 0
 269.772460938 40.4111328125 245.778320312 30.935546875 217.412109375 20.3232421875 c 0
 189.046875 9.703125 164.265625 1.013671875 162.342773438 1.013671875 c 0
 160.419921875 1.013671875 134.353515625 16.35546875 50 69.1962890625 c 1xe0
 52.0458984375 121.643554688 l 2
 53.1728515625 150.489257812 57.2119140625 335.3671875 61.013671875 532.482421875 c 0
 64.81640625 729.59765625 69.01171875 914.860351562 70.3408203125 944.178710938 c 0xd0
269.30078125 962.369140625 m 6
 299.523496108 981.454045585 324.818590507 995.360217965 329.221471156 995.360217965 c 0
 332.261600625 995.360217965 356.243454728 985.620874941 382.0625 976.163085938 c 4
 408.024414062 966.65234375 430.4453125 957.736328125 431.87890625 956.346679688 c 4
 433.321289062 954.947265625 428.112304688 947.517578125 420.296875 939.825195312 c 4
 406.50390625 926.241210938 404.9296875 925.6640625 365.236328125 919.694335938 c 4
 342.76171875 916.311523438 324.15234375 913.1640625 323.880859375 912.701171875 c 4xc8
 323.6015625 912.23828125 316.931640625 703.26953125 309.046875 485 c 4
 301.162109375 266.73046875 293.522460938 250.201171875 289.405273438 188.3828125 c 5
 263.181640625 168.094726562 l 6
 248.758789062 156.940429688 236.520507812 148.138671875 235.99609375 148.540039062 c 4
 235.462890625 148.942382812 231.258789062 148.63671875 226.643554688 367.8671875 c 4xc4
 222.037109375 587.09765625 217.3515625 825.970703125 214.23046875 927.587890625 c 5xc8
 269.30078125 962.369140625 l 6
EndSplineSet
EndChar

StartChar: A
Encoding: 65 65 12
Width: 405
Flags: W
VStem: 250.257 105.188<59.7705 276.198> 255.841 82.3535<232.104 720.149> 262.988 56.2637<746.064 948.517>
LayerCount: 2
Fore
SplineSet
159.612304688 954.263671875 m 6x00
 170.471679688 976.2734375 180.299804688 992.184570312 182.309570312 990.999023438 c 4
 184.501953125 989.719726562 185.546875 892.548828125 185.546875 689.654296875 c 0
 185.546875 669.138671875 185.536132812 647.54296875 185.514648438 624.856445312 c 4
 185.232421875 337.243164062 184.290039062 262.010742188 180.931640625 262.010742188 c 0
 178.697265625 262.010742188 168.59765625 265.845703125 142.20703125 274.486328125 c 5
 135.892578125 369.873046875 l 6
 132.430664062 422.338867188 128.951171875 467.201171875 128.16015625 469.563476562 c 4
 127.37890625 471.926757812 124.037109375 473.859375 120.729492188 473.850585938 c 4
 117.421875 473.850585938 101.571289062 465.963867188 85.505859375 456.333984375 c 4
 69.4404296875 446.703125 54.75 438.592773438 52.859375 438.30078125 c 4
 50.9697265625 438.017578125 49.70703125 440.096679688 50.05859375 442.931640625 c 4
 50.4111328125 445.766601562 70.9013671875 553.241210938 140.471679688 915.440429688 c 5
 159.612304688 954.263671875 l 6x00
262.98828125 968.03515625 m 0x20
 263.924804688 970.741210938 266.287109375 971.419921875 268.951171875 969.752929688 c 0
 271.381835938 968.232421875 283.701171875 959.254882812 296.34765625 949.8046875 c 0
 315.09765625 935.78515625 319.251953125 930.893554688 319.251953125 923.137695312 c 0x20
 319.251953125 917.141601562 327.760742188 714.899414062 338.194335938 473 c 0x40
 347.80859375 250.131835938 355.4453125 57.2138671875 355.4453125 4.431640625 c 0
 355.4453125 -0.193359375 355.38671875 -3.7421875 355.265625 -6.140625 c 1
 250.256835938 59.7705078125 l 1x80
 250.248046875 95.8525390625 l 2
 250.239257812 115.698242188 252.756835938 319.048828125 255.840820312 547.7421875 c 0x40
 258.924804688 776.436523438 262.137695312 965.569335938 262.98828125 968.03515625 c 0x20
EndSplineSet
EndChar

StartChar: B
Encoding: 66 66 13
Width: 416
Flags: W
VStem: 148.378 94.7485<695.291 913.411> 150.097 89.377<364.142 613.912> 150.551 74.7829<358.662 534.539>
LayerCount: 2
Fore
SplineSet
198.991210938 965.114257812 m 5x80
 253.596679688 998.780273438 l 5
 305.307617188 979.579101562 l 6
 333.74609375 969.026367188 358.596679688 959 360.526367188 957.315429688 c 4
 362.754882812 955.376953125 359.307617188 949.438476562 351.096679688 941.096679688 c 4
 338.658203125 928.456054688 336.561523438 927.701171875 296.7109375 921.692382812 c 4
 273.912109375 918.245117188 254.473632812 914.561523438 253.508789062 913.491210938 c 4
 252.543945312 912.4296875 249.88671875 869.456054688 247.596679688 818 c 4
 245.23443207 764.694137374 243.12638737 720.16446531 243.12638737 712.149305749 c 0x80
 243.12638737 703.358930381 246.781258739 701.915814915 301.702148438 681.315429688 c 4
 334.052734375 669.174804688 362.420898438 658.123046875 364.728515625 656.75390625 c 4
 367.737304688 654.96484375 366.24609375 650.130859375 359.46484375 639.657226562 c 4
 351.956054688 628.0703125 346.377929688 623.903320312 332.456054688 619.526367188 c 4
 321.10546875 615.956054688 301.60546875 613.991210938 239.473632812 613.912109375 c 5x40
 237.614257812 577.947265625 l 6
 236.587890625 558.166015625 231.061523438 431.061523438 225.333984375 295.491210938 c 4x20
 219.60546875 159.920898438 214.912109375 46.630859375 214.912109375 43.736328125 c 4
 214.912109375 40.841796875 202.28125 29 186.842773438 17.4208984375 c 4
 171.67479263 6.04491283221 161.836228048 0.059789449148 158.393438813 0.059789449148 c 0
 157.718715687 0.059789449148 157.28964638 0.28967063395 157.114257812 0.75390625 c 4
 156.2109375 3.166015625 131.737304688 100.271484375 102.728515625 216.543945312 c 4
 73.728515625 332.815429688 50 428.736328125 50 429.701171875 c 4
 50 430.666015625 51.5791015625 431.456054688 53.5087890625 431.456054688 c 4
 55.4384765625 431.456054688 77.5439453125 414.876953125 102.631835938 394.614257812 c 4
 127.719726562 374.350585938 149.079101562 358.166015625 150.096679688 358.6484375 c 4x40
 150.404992248 358.793353204 150.551074965 368.618834754 150.551074965 385.852954938 c 0x20
 150.551074965 425.99092305 149.75869886 506.314536292 148.377929688 598.123046875 c 4
 146.412109375 729.350585938 144.7109375 858.03515625 144.38671875 931.456054688 c 5
 198.991210938 965.114257812 l 5x80
EndSplineSet
EndChar

StartChar: C
Encoding: 67 67 14
Width: 412
Flags: W
VStem: 57.6133 82.8389<261.375 614.379> 62.9785 63.3475<94.0003 329.428> 304.538 53.5537<73.0497 137.725>
LayerCount: 2
Fore
SplineSet
104.372070312 963.935546875 m 1xa0
 158.745117188 997.358398438 l 1
 210.086914062 978.299804688 l 2
 238.327148438 967.8203125 262.99609375 957.872070312 264.912109375 956.200195312 c 0
 267.125 954.275390625 263.702148438 948.377929688 255.548828125 940.09375 c 0
 243.196289062 927.541015625 241.114257812 926.791992188 201.541015625 920.825195312 c 0
 178.90234375 917.40234375 159.598632812 913.735351562 158.640625 912.680664062 c 0
 157.682617188 911.618164062 149.502929688 728.61328125 140.452148438 506 c 0xa0
 132.249671129 304.033709509 126.326007103 134.58250759 126.326007103 103.99610884 c 0
 126.326007103 94.3004730411 159.31550478 92.4921542122 205.678710938 85.73828125 c 0
 247.838867188 79.5888671875 285.078125 73.900390625 288.431640625 73.0986328125 c 0
 293.048828125 71.9931640625 295.322265625 74.8154296875 297.778320312 84.7021484375 c 0
 299.572265625 91.888671875 302.604492188 104.040039062 304.538085938 111.705078125 c 0
 307.395507812 123.08984375 311.584960938 128.038085938 327.420898438 138.708984375 c 0
 338.074761388 145.895873866 347.969369048 151.783205266 349.407927263 151.783205266 c 0
 350.845997163 151.783205266 354.756401251 124.739746019 358.091796875 91.6787109375 c 0
 360.596321326 66.9259656307 362.104839545 45.010113282 362.104839545 35.0825679174 c 0
 362.104839545 31.7521374358 361.935066967 29.7709023185 361.576171875 29.484375 c 0
 360.15625 28.3427734375 311.166992188 22.349609375 252.717773438 16.173828125 c 0
 194.267578125 9.9892578125 140.173828125 4.109375 118.571289062 1.2353515625 c 1
 91.541015625 35.564453125 l 2
 67.5517578125 66.025390625 64.337890625 71.853515625 62.978515625 87.3154296875 c 0x60
 62.1337890625 96.896484375 59.720703125 225.46875 57.61328125 373.029296875 c 0
 55.5048828125 520.58984375 52.935546875 706.391601562 50 930.520507812 c 1
 104.372070312 963.935546875 l 1xa0
EndSplineSet
EndChar

StartChar: D
Encoding: 68 68 15
Width: 471
Flags: W
VStem: 50 106.64<93.0011 328.857> 64.958 80.9746<267.397 750.044> 82.9844 54.2158<740.825 934.772> 208.413 105.666<634.169 906.991> 213.045 82.9307<249.058 738.232> 218.967 59.6035<87.9746 299.119> 335.062 59.2764<72.8928 133.552>
LayerCount: 2
Fore
SplineSet
262.958007812 953.62109375 m 2x12
 314.596679688 986.026367188 l 1
 330.200195312 980.12109375 l 2
 338.786132812 976.87109375 362.096679688 968.310546875 382.018554688 961.0859375 c 0
 401.932617188 953.87109375 419.518554688 947.069335938 421.096679688 945.982421875 c 0
 422.682617188 944.887695312 417.251953125 937.569335938 409.02734375 929.715820312 c 0
 394.415039062 915.75 393.200195312 915.310546875 354.423828125 909.776367188 c 0
 332.61328125 906.6640625 314.458007812 903.776367188 314.079101562 903.37109375 c 0x12
 313.700195312 902.95703125 305.553710938 718.741210938 295.975585938 494 c 0x0a
 286.40625 269.258789062 278.5703125 83.439453125 278.5703125 81.0693359375 c 0
 278.561523438 78.3447265625 287.1484375 75.62890625 301.837890625 73.689453125 c 0
 314.639648438 72 326.079101562 71.6123046875 327.259765625 72.828125 c 0
 328.44140625 74.04296875 331.950195312 85.896484375 335.061523438 99.1728515625 c 0
 340.700195312 123.25 340.768554688 123.344726562 363.087890625 137.965820312 c 0
 375.3984375 146.026367188 387.018554688 152.62109375 388.915039062 152.62109375 c 0
 390.85546875 152.62109375 393.225585938 137.215820312 394.337890625 117.276367188 c 0
 394.899414062 107.321289062 395.274414062 95.037109375 395.274414062 79.677734375 c 0
 395.274414062 65.044921875 394.93359375 47.62109375 394.087890625 26.7587890625 c 1
 125.11328125 -12.2587890625 l 1
 88.90625 20.6982421875 l 2
 66.2421875 41.3232421875 50 51.830078125 50 60.7041015625 c 0x86
 50 93.3447265625 56.294921875 282.274414062 64.9580078125 507.79296875 c 0x42
 74.466796875 755.29296875 82.5791015625 958.25 82.984375 958.801757812 c 0
 83.3984375 959.362304688 95.759765625 950.439453125 110.458007812 938.974609375 c 0
 125.15625 927.517578125 137.19140625 917.75 137.200195312 917.276367188 c 0x22
 137.216796875 916.801757812 141.139648438 732.534179688 145.932617188 507.79296875 c 0x42
 150.716796875 283.051757812 155.536132812 98.396484375 156.639648438 97.4482421875 c 0
 157.743164062 96.5 172.053710938 93.7841796875 188.432617188 91.4228515625 c 0
 204.811523438 89.0517578125 218.553710938 87.5 218.966796875 87.974609375 c 0x86
 219.372070312 88.439453125 216.708007812 275.034179688 213.044921875 502.62109375 c 0x0a
 210.189453125 679.997070312 208.413085938 832.892578125 208.413085938 892.3515625 c 0
 208.413085938 909.182617188 208.555664062 918.526367188 208.85546875 918.819335938 c 0
 210.208007812 920.137695312 234.553710938 935.801757812 262.958007812 953.62109375 c 2x12
EndSplineSet
EndChar

StartChar: E
Encoding: 69 69 16
Width: 440
Flags: W
HStem: 913.201 82<280.387 346.527>
VStem: 171.505 108.882<645.577 829.891 912.085 916.71> 180.563 81.1875<232.985 547.446> 185.897 57.6396<17.8131 259.787>
LayerCount: 2
Fore
SplineSet
224.322265625 961.5546875 m 0xc0
 253.349609375 979.876953125 279.5390625 995.201171875 282.51171875 995.201171875 c 0
 285.817382812 995.201171875 310.950195312 986.787109375 338.767578125 976.37890625 c 0
 366.848632812 965.859375 390.24609375 955.920898438 390.756835938 954.30078125 c 0
 391.276367188 952.681640625 385.73046875 945.5859375 378.432617188 938.543945312 c 0
 365.756835938 926.30859375 363.30078125 925.471679688 322.913085938 919.758789062 c 0
 299.673828125 916.466796875 280.537109375 913.517578125 280.38671875 913.201171875 c 0xc0
 280.237304688 912.883789062 271.848632812 716.140625 261.750976562 476 c 0xa0
 251.69921875 237.135742188 243.537109375 40.294921875 243.537109375 36.779296875 c 0
 243.537109375 35.2333984375 231.096679688 24.6552734375 215.518554688 12.9716796875 c 0
 200.568359375 1.7607421875 190.426757812 -4.4033203125 187.060546875 -4.4033203125 c 0
 186.43359375 -4.4033203125 186.041015625 -4.189453125 185.897460938 -3.75390625 c 0x90
 185.10546875 -1.3330078125 182.702148438 136.915039062 180.563476562 303.46484375 c 0xa0
 178.423828125 470.013671875 175.509765625 656.58984375 171.504882812 829.890625 c 1
 139.814453125 829.846679688 l 2
 117.19140625 829.8203125 102.077148438 831.853515625 86.998046875 836.951171875 c 0
 70.6953125 842.4609375 64.0576171875 846.888671875 57.9482421875 856.352539062 c 0
 53.59375 863.08203125 50 869.796875 50 871.247070312 c 0
 50 872.706054688 77.6865234375 884.190429688 111.540039062 896.774414062 c 0
 148.11328125 910.366210938 172.321289062 921.161132812 172.321289062 923.85546875 c 0
 172.321289062 926.465820312 194.911132812 942.981445312 224.322265625 961.5546875 c 0xc0
EndSplineSet
EndChar

StartChar: F
Encoding: 70 70 17
Width: 543
Flags: W
HStem: 913.317 88.6611<266.446 361.91>
VStem: 133.009 111.462<706.745 891.473> 161.661 57.4199<28.468 231.236>
LayerCount: 2
Fore
SplineSet
173.318359375 965.631835938 m 2xc0
 195.490234375 985.578125 214.826171875 1001.93457031 216.288085938 1001.97851562 c 0
 217.750976562 1002.01464844 275.99609375 993.247070312 345.73046875 982.493164062 c 0
 415.455078125 971.73046875 477.290039062 961.952148438 493.779296875 958.57421875 c 1
 490.916015625 896.092773438 l 2
 489.337890625 861.73046875 486.944335938 832.404296875 485.596679688 830.923828125 c 0
 485.469726562 830.786132812 485.24609375 830.711914062 484.915039062 830.711914062 c 0
 481.708007812 830.711914062 468.362304688 837.583984375 433.49609375 859.612304688 c 1
 427.290039062 886.508789062 l 2
 422.450195312 907.466796875 419.7109375 913.379882812 414.87890625 913.317382812 c 0
 411.465820312 913.2734375 371.970703125 907.6796875 327.104492188 900.888671875 c 0
 282.24609375 894.09765625 245.065429688 888.149414062 244.470703125 887.669921875 c 0xc0
 243.876953125 887.19140625 237.955078125 703.291015625 231.306640625 479 c 0
 224.657226562 254.708984375 219.161132812 65.21484375 219.081054688 57.900390625 c 0
 218.95703125 45.560546875 216.970703125 43.078125 191.465820312 23.3525390625 c 0
 174.911132812 10.546875 168.26171875 5.5888671875 165.049804688 5.5888671875 c 0
 163.181640625 5.5888671875 162.4765625 7.2666015625 161.661132812 10.0546875 c 0xa0
 160.384765625 14.42578125 157.538085938 92.208984375 151.315429688 347.794921875 c 1
 99.568359375 555.241210938 l 2
 71.8505859375 666.337890625 50 760.413085938 50 768.43359375 c 0
 50 769.627929688 50.861328125 770.358398438 51.93359375 770.358398438 c 0
 56.9619140625 770.358398438 74.333984375 757.255859375 142.11328125 702.404296875 c 1
 139.887695312 720.134765625 l 2
 138.655273438 729.88671875 136.616210938 780.950195312 133.008789062 929.354492188 c 1
 173.318359375 965.631835938 l 2xc0
EndSplineSet
EndChar

StartChar: G
Encoding: 71 71 18
Width: 482
Flags: W
HStem: 5.34375 95.7441<181.745 329.147>
VStem: 225.562 70.3506<524 762.102> 225.729 57.6572<711.977 966.548>
LayerCount: 2
Fore
SplineSet
225.728515625 742.543945312 m 2xa0
 225.875976562 971.588867188 226.234375 1000.12597656 230.87890625 1000.12597656 c 0
 231.178710938 1000.12597656 231.49609375 1000.00683594 231.833007812 999.815429688 c 0
 235.10546875 997.956054688 248.03515625 986 283.385742188 950.079101562 c 1xa0
 295.912109375 524 l 1
 432.359375 113.473632812 l 1
 382.623046875 62.5966796875 l 2
 355.272460938 34.6142578125 331.228515625 9.6669921875 329.193359375 7.158203125 c 0
 328.244140625 5.9873046875 325.254882812 5.34375 318.469726562 5.34375 c 0
 303.743164062 5.34375 271.134765625 8.376953125 202.684570312 15.6494140625 c 0
 135.140625 22.82421875 78.8251953125 29.6142578125 77.53515625 30.736328125 c 0
 76.24609375 31.8505859375 78.1669921875 59.6142578125 81.7900390625 92.4208984375 c 0
 85.412109375 125.227539062 89.228515625 152.46484375 90.2724609375 152.947265625 c 0
 91.3076171875 153.4296875 101.149414062 147.903320312 112.131835938 140.666992188 c 0
 131.728515625 127.762695312 132.237304688 127.008789062 138.728515625 101.193359375 c 0
 142.359375 86.71875 145.614257812 74.587890625 145.938476562 74.236328125 c 0
 146.272460938 73.876953125 186.017578125 79.75390625 234.263671875 87.2890625 c 0
 282.508789062 94.82421875 323.17578125 101.03515625 324.623046875 101.087890625 c 0
 325.686523438 101.1328125 331.12109375 105.760742188 331.12109375 110.419921875 c 0
 331.12109375 122.396484375 314.515625 181.84375 225.561523438 481.89453125 c 1xc0
 225.728515625 742.543945312 l 2xa0
51.8076171875 494.17578125 m 0
 52.7724609375 494.17578125 80.5703125 473.25390625 113.587890625 447.684570312 c 0
 164.287109375 408.416015625 172.197265625 401.872070312 172.197265625 393.934570312 c 0
 172.197265625 392.895507812 172.061523438 391.831054688 171.868164062 390.666992188 c 0
 170.903320312 384.876953125 164.81640625 340.262695312 158.333007812 291.517578125 c 0
 151.850585938 242.780273438 145.140625 203.306640625 143.420898438 203.797851562 c 0
 141.702148438 204.297851562 119.973632812 268.649414062 95.123046875 346.806640625 c 0
 70.2978515625 424.9140625 50 490.01171875 50 491.541015625 c 0
 50 492.989257812 50.8603515625 494.17578125 51.8076171875 494.17578125 c 0
EndSplineSet
EndChar

StartChar: H
Encoding: 72 72 19
Width: 458
Flags: W
HStem: 913.778 82.0264<158.803 225.013>
VStem: 50 108.803<654.805 917.287> 57.333 82.8604<240.554 654.805> 64.375 57.6842<18.4116 216.711> 326.32 69.6836<107.205 506.497> 326.417 82.1396<68.658 257.581> 339.164 43.1338<499.474 687.827>
LayerCount: 2
Fore
SplineSet
102.817382812 962.483398438 m 2xc0
 131.846961756 980.650063268 158.031877056 995.804677529 160.995750741 995.804677529 c 0
 164.260625623 995.804677529 189.416588186 987.374598141 217.25390625 976.956054688 c 0
 245.334960938 966.436523438 268.741210938 956.498046875 269.251953125 954.877929688 c 0
 269.771484375 953.258789062 264.225585938 946.163085938 256.927734375 939.12109375 c 0
 244.251953125 926.885742188 241.795898438 926.048828125 201.408203125 920.3359375 c 0
 178.168945312 917.043945312 158.99609375 914.094726562 158.802734375 913.778320312 c 0xc0
 158.600585938 913.4609375 150.228515625 719.094726562 140.193359375 481.858398438 c 0xa0
 130.187088447 245.512905943 122.059224322 48.4394912864 122.059224322 42.6558175763 c 0
 122.059224322 36.675718635 114.946543961 29.245784275 94.013671875 13.548828125 c 0
 79.0387671105 2.31764955165 68.9206097066 -3.8316757153 65.5479833836 -3.8316757153 c 0
 64.9159423816 -3.8316757153 64.5208041846 -3.61571163669 64.375 -3.1767578125 c 0x90
 63.5654296875 -0.755859375 60.396484375 186.612304688 57.3330078125 413.197265625 c 0xa0
 54.26953125 639.78125 51.373046875 848.627929688 50 929.438476562 c 1
 102.817382812 962.483398438 l 2xc0
176.743164062 711.938476562 m 0
 175.607421875 716.127929688 176.620117188 717.994140625 179.594726562 717.219726562 c 0
 182.129882812 716.559570312 209.806640625 696.20703125 241.100585938 672 c 0
 280.307560981 641.66508255 298.143419165 625.812144784 298.143419165 620.854822811 c 0
 298.143419165 616.44048175 292.662473254 572.346865678 285.879882812 522.3515625 c 0
 279.057617188 472 272.702148438 430.010742188 271.76953125 429.041992188 c 0
 270.8359375 428.073242188 268.890625 428.663085938 267.438476562 430.353515625 c 0
 265.986328125 432.043945312 245.37890625 494.631835938 221.646484375 569.438476562 c 0
 197.922851562 644.244140625 177.7109375 708.373046875 176.743164062 711.938476562 c 0
339.1640625 703.689453125 m 0x82
 339.367402791 704.359846116 339.744053252 704.761446855 340.42944078 704.761446855 c 0
 343.568943063 704.761446855 353.186401237 696.335014973 382.297851562 666.717773438 c 1x82
 396.00390625 339.252929688 l 2x88
 403.5390625 159.147460938 409.190429688 10.599609375 408.556640625 9.1474609375 c 0
 407.922851562 7.6953125 389.181640625 21.5595703125 326.416992188 73.408203125 c 1x84
 326.3203125 109.5 l 2x88
 326.276367188 129.349609375 328.78515625 269.974609375 331.901367188 422 c 0
 335.017578125 574.024414062 338.291992188 700.78515625 339.1640625 703.689453125 c 0x82
EndSplineSet
EndChar

StartChar: I
Encoding: 73 73 20
Width: 457
Flags: W
VStem: 213.763 108.166<694.512 930.334> 216.622 91.8945<394.487 746.061> 220.78 60.7627<35.9648 133.305>
LayerCount: 2
Fore
SplineSet
264.6484375 962.684570312 m 6x80
 292.630859375 980.473632812 317.280273438 995.166992188 319.4375 995.325195312 c 4
 322.11328125 995.526367188 322.90234375 987.026367188 321.928710938 968.420898438 c 4x80
 321.1484375 953.46484375 315.11328125 810.17578125 308.516601562 650 c 4x40
 301.928710938 489.825195312 295.6484375 346.140625 292.604492188 302.631835938 c 5
 314.586914062 296.114257812 l 6
 326.68359375 292.526367188 348.815429688 285.81640625 363.771484375 281.202148438 c 4
 387.54296875 273.860351562 392.174804688 271.03515625 400.61328125 258.719726562 c 4
 405.919921875 250.973632812 408.919921875 243.473632812 407.280273438 242.052734375 c 4
 405.639648438 240.631835938 378.797851562 230 290.963867188 197.368164062 c 5
 288.384765625 160.526367188 l 6
 286.963867188 140.263671875 284.849609375 103.947265625 281.54296875 35.96484375 c 5
 255.2890625 16.6669921875 l 6
 240.849609375 6.052734375 227.97265625 -2.6318359375 226.666015625 -2.6318359375 c 4
 225.358398438 -2.6318359375 223.499023438 28.2900390625 220.780273438 134.790039062 c 5x20
 136.569335938 73.74609375 l 6
 91.5859375 41.1318359375 53.6005859375 15.494140625 50.337890625 15.494140625 c 0
 48.4912109375 15.494140625 53.947265625 39.3203125 73.4111328125 106.860351562 c 5
 219.481445312 274.561523438 l 5
 216.622070312 490.3515625 l 6x40
 215.051757812 609.03515625 213.762695312 756.587890625 213.762695312 930.333984375 c 5
 264.6484375 962.684570312 l 6x80
EndSplineSet
EndChar

StartChar: J
Encoding: 74 74 21
Width: 321
Flags: W
HStem: 917.912 82.0693<161.004 227.345>
VStem: 50 111.004<657.445 921.516> 59.542 82.8965<246.923 665.872> 64.6484 59.9447<24.0856 272.964>
LayerCount: 2
Fore
SplineSet
103.978515625 965.587890625 m 6xc0
 133.661387164 984.393388223 160.354936518 999.981437327 163.303973904 999.981437327 c 0
 166.464090525 999.981437327 191.676940803 991.500057782 219.5859375 981.0546875 c 4
 247.666992188 970.53515625 271.065429688 960.596679688 271.584960938 958.9765625 c 4
 272.094726562 957.357421875 266.549804688 950.340820312 259.260742188 943.38671875 c 4
 246.672851562 931.388671875 243.8203125 930.4296875 203.741210938 924.627929688 c 4
 180.501953125 921.274414062 161.267578125 918.24609375 161.00390625 917.912109375 c 4xc0
 160.739257812 917.568359375 152.385742188 726.362304688 142.438476562 493 c 4xa0
 132.571815001 261.527693569 124.593125796 65.5656010256 124.593125796 54.8447185304 c 0
 124.593125796 40.9926300173 123.958687692 39.8732396335 98.265625 20.2880859375 c 4
 83.6533203125 9.1533203125 70.10546875 0.0419921875 68.1689453125 0.0419921875 c 4
 66.0478515625 0.0419921875 64.6484375 15.0068359375 64.6484375 37.89453125 c 4x90
 64.6484375 58.712890625 62.3505859375 231.028320312 59.5419921875 420.81640625 c 4xa0
 56.734375 610.60546875 53.4423828125 803.123046875 50 931.379882812 c 5
 103.978515625 965.587890625 l 6xc0
EndSplineSet
EndChar

StartChar: K
Encoding: 75 75 22
Width: 457
Flags: W
HStem: 774.689 20G<54.1057 55.8293> 920.236 81.9917<297.526 363.666>
VStem: 187.447 110.079<700.19 923.745> 193.935 91.9717<460.395 567.542 699.936 903.302>
LayerCount: 2
Fore
SplineSet
240.87109375 969.047851562 m 2xe0
 270.225103318 987.115986108 296.687936512 1002.22801382 299.659267352 1002.22801382 c 0
 302.965963455 1002.22801382 328.0986785 993.821834792 355.90625 983.4140625 c 0
 383.987304688 972.89453125 407.385742188 962.956054688 407.905273438 961.3359375 c 0
 408.423828125 959.716796875 402.87890625 952.62109375 395.581054688 945.579101562 c 0
 382.905273438 933.34375 380.440429688 932.506835938 340.061523438 926.793945312 c 0
 316.822265625 923.501953125 297.67578125 920.552734375 297.526367188 920.236328125 c 0xe0
 297.368164062 919.918945312 292.138671875 796.063476562 285.90625 645.006835938 c 0
 279.665039062 493.950195312 275.043945312 370.024414062 275.625 369.620117188 c 0
 276.206054688 369.21484375 298.864257812 387.004882812 325.977539062 409.153320312 c 0
 353.08984375 431.309570312 376.4609375 449.4609375 377.9140625 449.504882812 c 0
 379.366210938 449.548828125 380.5546875 448 380.5546875 446.063476562 c 0
 380.5546875 444.126953125 354.331054688 354.998046875 322.2890625 248 c 0
 290.237304688 141.001953125 263.30078125 50.6845703125 262.4296875 47.2958984375 c 0
 261.548828125 43.90625 248.16015625 31.626953125 232.666992188 20.0068359375 c 0
 217.3335877 8.51024172434 207.570212788 2.56603967628 204.080768322 2.56603967628 c 0
 203.383476677 2.56603967628 202.9367129 2.80340097134 202.74609375 3.28125 c 0
 201.787109375 5.7021484375 200.598632812 52.048828125 199.216796875 204.866210938 c 1
 148.151367188 206.943359375 l 2
 118.344726562 208.158203125 91.3994140625 211.08984375 83.3974609375 213.986328125 c 0
 74.638671875 217.1640625 66.14453125 224.030273438 50 247.120117188 c 1
 114.040039062 271.1953125 l 2
 149.26953125 284.434570312 182.482421875 296.318359375 197.614257812 299.936523438 c 1
 197.456054688 368.598632812 l 1
 156.07421875 368.563476562 l 2
 155.903802418 368.563382505 155.733880312 368.563335309 155.564449425 368.563335309 c 0
 124.069414483 368.563335309 109.548000542 370.194149828 92.693359375 375.60546875 c 0
 74.6123046875 381.423828125 68.9609375 385.208984375 61.00390625 396.8203125 c 0
 55.677734375 404.59375 52.1123046875 411.635742188 53.0810546875 412.471679688 c 0
 54.048828125 413.298828125 79.4013671875 423.396484375 109.418945312 434.91015625 c 0
 139.436523438 446.415039062 170.73046875 457.594726562 193.934570312 463.668945312 c 1xd0
 193.802734375 567.541992188 l 1
 79.4892578125 699.197265625 l 1
 66.2236328125 746.045898438 l 2
 59.0978768706 771.203926642 53.4619602116 794.689283383 54.7493712616 794.689283383 c 0
 56.9092904671 794.689283383 84.9363000169 775.22484721 118.125 750.640625 c 0
 152.12109375 725.46484375 182.684570312 702.956054688 186.056640625 700.614257812 c 0
 186.616516066 700.224840903 187.124084217 699.931782899 187.580056593 699.931782899 c 0
 189.660299176 699.931782899 190.666638817 706.031426844 190.666638817 736.908643469 c 0
 190.666638817 769.173458336 189.567818587 828.492854956 187.447265625 936.177734375 c 1
 240.87109375 969.047851562 l 2xe0
EndSplineSet
EndChar

StartChar: L
Encoding: 76 76 23
Width: 510
Flags: W
VStem: 178.823 111.023<64.8076 195.934> 195.76 87.7627<440.5 684.455> 204.398 74.1416<638.155 690.607>
LayerCount: 2
Fore
SplineSet
235.934570312 31.3603515625 m 2x80
 206.286132812 12.96484375 180.85546875 -0.96484375 179.434570312 0.412109375 c 0
 179.05078125 0.78125 178.823242188 4.3837890625 178.823242188 12.4677734375 c 0x80
 178.823242188 34.33203125 180.48828125 88.982421875 185.233398438 201.149414062 c 1
 146.63671875 201.193359375 l 2
 119.750976562 201.228515625 102.259765625 203.087890625 88.9873046875 207.333984375 c 0
 74.20703125 212.061523438 67.6982421875 216.5703125 59.943359375 227.46484375 c 0
 54.443359375 235.184570312 49.978515625 242.290039062 50.0224609375 243.254882812 c 0
 50.06640625 244.219726562 79.7158203125 255.860351562 115.908203125 269.114257812 c 0
 152.110351562 282.377929688 183.698242188 293.825195312 186.110351562 294.552734375 c 0
 189.145507812 295.473632812 190.49609375 304.552734375 190.49609375 352.026367188 c 1
 147.513671875 352.298828125 l 2
 116.127929688 352.5 99.8037109375 354.228515625 86.9873046875 358.728515625 c 0
 74.0927734375 363.24609375 66.654296875 368.737304688 58.9169921875 379.447265625 c 0
 53.1279296875 387.46484375 49.1806640625 394.561523438 50.1455078125 395.228515625 c 0
 51.1103515625 395.88671875 77.9521484375 406.061523438 109.794921875 417.842773438 c 0
 141.63671875 429.614257812 174.004882812 441.061523438 195.759765625 447.31640625 c 1x40
 200.680664062 567.219726562 l 2
 202.922851562 621.959960938 204.3984375 669.530273438 204.3984375 685.213867188 c 0
 204.3984375 688.421875 204.336914062 690.294921875 204.20703125 690.623046875 c 0
 203.443359375 692.552734375 180.180664062 702.81640625 152.522460938 713.4296875 c 0
 104.689453125 731.78125 101.759765625 733.46484375 92.8466796875 747.74609375 c 0
 87.6982421875 756.008789062 84.2685546875 763.46484375 85.2333984375 764.31640625 c 0
 86.1982421875 765.158203125 112.250976562 773.123046875 143.127929688 782.008789062 c 0
 174.004882812 790.89453125 201.864257812 800.026367188 205.03125 802.290039062 c 0
 209.829101562 805.728515625 211.416992188 818.869140625 214.619140625 881.8515625 c 0
 217.952148438 947.491210938 219.250976562 957.81640625 224.645507812 961.369140625 c 0
 228.057617188 963.60546875 240.329101562 972.587890625 272.9609375 997.184570312 c 1
 275.6015625 928.114257812 l 2
 277.057617188 890.123046875 278.63671875 858.623046875 279.110351562 858.114257812 c 0
 279.583984375 857.596679688 318.663085938 881.114257812 365.943359375 910.377929688 c 0
 413.224609375 939.631835938 453.881835938 964.131835938 456.294921875 964.81640625 c 0
 458.70703125 965.5 460.680664062 964.482421875 460.680664062 962.552734375 c 0
 460.680664062 960.623046875 453.627929688 939.702148438 429.337890625 873.079101562 c 1
 278.540039062 725.7109375 l 1x20
 283.522460938 418.693359375 l 2x40
 286.259765625 249.833984375 288.803710938 101.131835938 289.846679688 64.8076171875 c 1
 235.934570312 31.3603515625 l 2x80
EndSplineSet
EndChar

StartChar: M
Encoding: 77 77 24
Width: 479
Flags: W
HStem: 0.805664 80.5889<286.974 386.599> 916.745 81.6338<320.599 386.051>
VStem: 213.082 107.517<648.618 920.004> 218.012 84.1748<263.601 752.27> 227.607 56.9307<81.3945 283.811>
LayerCount: 2
Fore
SplineSet
268.642578125 967.973632812 m 0xe0
 306.545898438 991.694335938 318.4453125 998.37890625 325.8046875 998.37890625 c 0
 327.353515625 998.37890625 328.700195312 998.083007812 330.046875 997.587890625 c 0
 334.923828125 995.797851562 357.862304688 987.236328125 381.020507812 978.5703125 c 0
 404.177734375 969.903320312 425.107421875 961.75390625 427.529296875 960.46484375 c 0
 430.555664062 958.859375 427.248046875 953.561523438 417.002929688 943.614257812 c 0
 402.388671875 929.412109375 401.212890625 928.973632812 361.721679688 923.2890625 c 0
 339.529296875 920.087890625 321.020507812 917.140625 320.598632812 916.745117188 c 0xe0
 320.168945312 916.341796875 311.888671875 732.859375 302.186523438 509 c 0xd0
 292.485351562 285.140625 284.546875 96.8505859375 284.538085938 90.5791015625 c 0
 284.529296875 79.39453125 284.774414062 79.2109375 297.686523438 81.1318359375 c 0
 298.880859375 81.3095703125 300.618164062 81.39453125 302.8046875 81.39453125 c 0
 313.875976562 81.39453125 336.45703125 79.21875 358.212890625 75.9296875 c 0
 404.51171875 68.9208984375 405.879882812 68.46484375 418.739257812 55.5439453125 c 0
 425.967773438 48.2802734375 430.704101562 41.2197265625 429.265625 39.8505859375 c 0
 427.818359375 38.4912109375 403.344726562 28.623046875 374.879882812 17.9208984375 c 0
 348.635742188 8.0615234375 325.11328125 0.8056640625 319.711914062 0.8056640625 c 0
 319.254882812 0.8056640625 318.927734375 0.8583984375 318.739257812 0.96484375 c 0
 316.327148438 2.341796875 295.40625 16.7890625 272.248046875 33.0791015625 c 0
 249.08984375 49.3681640625 229.002929688 63.640625 227.607421875 64.7978515625 c 0xc8
 226.212890625 65.947265625 221.897460938 261.10546875 218.01171875 498.473632812 c 0xd0
 214.977539062 684.198242188 213.08203125 844.1953125 213.08203125 905.6875 c 0
 213.08203125 922.786132812 213.228515625 932.268554688 213.538085938 932.5703125 c 0
 214.950195312 933.956054688 239.748046875 949.885742188 268.642578125 967.973632812 c 0xe0
55.248046875 719.903320312 m 0
 57.8359375 718.727539062 84.677734375 698.4296875 114.888671875 674.7890625 c 0
 145.08984375 651.149414062 170.318359375 630.227539062 170.932617188 628.297851562 c 0
 170.965820312 628.1953125 170.982421875 627.974609375 170.982421875 627.637695312 c 0
 170.982421875 621.62109375 165.797851562 578.916992188 158.994140625 529.043945312 c 0
 151.809570312 476.376953125 144.353515625 433.271484375 142.423828125 433.245117188 c 0
 140.494140625 433.219726562 118.791992188 496.833007812 94.1953125 574.60546875 c 0
 69.7763671875 651.825195312 50 716.430664062 50 718.98046875 c 0
 50 720.7421875 52.81640625 720.99609375 55.248046875 719.903320312 c 0
EndSplineSet
EndChar

StartChar: N
Encoding: 78 78 25
Width: 483
Flags: W
HStem: 917.673 82.0693<322.438 388.728>
VStem: 211.954 110.484<663.317 921.276> 221.021 82.8516<242.916 663.317> 228.02 57.7988<22.5655 269.118>
LayerCount: 2
Fore
SplineSet
265.651367188 966.228515625 m 2xc0
 295.17578125 984.55078125 321.737304688 999.7421875 324.686523438 999.7421875 c 0
 327.845703125 999.7421875 353.059570312 991.260742188 380.96875 980.815429688 c 0
 409.049804688 970.295898438 432.447265625 960.357421875 432.966796875 958.737304688 c 0
 433.486328125 957.118164062 427.940429688 950.1015625 420.642578125 943.147460938 c 0
 408.063476562 931.149414062 405.202148438 930.190429688 365.123046875 924.388671875 c 0
 341.883789062 921.03515625 322.67578125 918.006835938 322.438476562 917.672851562 c 0xc0
 322.192382812 917.329101562 313.837890625 725.331054688 303.873046875 491 c 0xa0
 293.926757812 257.299804688 285.818359375 60.06640625 285.818359375 51.8017578125 c 0
 285.818359375 39.2646484375 284.311523438 37.3515625 257.728515625 17.408203125 c 0
 242.6640625 6.1083984375 232.6328125 0.0146484375 229.23046875 0.0146484375 c 0
 228.583007812 0.0146484375 228.17578125 0.2353515625 228.01953125 0.6826171875 c 0x90
 227.174804688 3.103515625 224.0234375 192.056640625 221.021484375 420.577148438 c 0xa0
 218.010742188 649.098632812 214.736328125 857.857421875 211.954101562 932.901367188 c 1
 265.651367188 966.228515625 l 2xc0
50 720.75390625 m 0
 49.9912109375 721.237304688 51.55859375 721.633789062 53.4951171875 721.633789062 c 0
 55.431640625 721.633789062 82.7646484375 701.58984375 114.243164062 677.100585938 c 0
 145.712890625 652.610351562 172.25390625 631.90625 173.221679688 631.096679688 c 0
 174.190429688 630.287109375 169.745117188 590.506835938 163.353515625 542.708007812 c 0
 156.954101562 494.899414062 150.616210938 450.594726562 149.260742188 444.248046875 c 0
 147.9140625 437.901367188 145.475585938 433.147460938 143.85546875 433.684570312 c 0
 142.227539062 434.221679688 120.44921875 498.833984375 95.4580078125 577.267578125 c 0
 70.466796875 655.700195312 50.0087890625 720.26953125 50 720.75390625 c 0
EndSplineSet
EndChar

StartChar: O
Encoding: 79 79 26
Width: 531
Flags: W
VStem: 144.674 43.7109<763.997 966.671> 263.731 107.093<79.5979 352.113> 269.657 87.7959<408.056 724.1> 284.831 58.4756<724.314 953.353>
LayerCount: 2
Fore
SplineSet
284.831054688 948.875 m 2x90
 287.287109375 996.670898438 l 1
 341.3984375 953.352539062 l 1
 343.306640625 908.055664062 l 2x90
 344.360351562 883.143554688 350.728515625 688.717773438 357.453125 476 c 0xa0
 364.186523438 263.282226562 370.197265625 87.6728515625 370.82421875 85.7568359375 c 0
 371.451171875 83.83984375 390.59765625 79.4326171875 413.3671875 75.95703125 c 0
 452.810546875 69.9462890625 455.40625 69.03125 467.90625 56.79296875 c 0
 475.118164062 49.728515625 481.041992188 43.16015625 481.068359375 42.2021484375 c 0
 481.09375 41.244140625 456.373046875 31.3486328125 371.155273438 -0.044921875 c 1
 320.6328125 32.0107421875 l 2
 292.844726562 49.650390625 268.280273438 65.8173828125 266.05078125 67.951171875 c 0
 264.504882812 69.423828125 263.731445312 78.958984375 263.731445312 101.775390625 c 0xc0
 263.731445312 124.590820312 264.504882812 160.686523438 266.05078125 215.27734375 c 0
 267.478515625 265.799804688 268.259765625 310.811523438 268.259765625 336.9453125 c 0
 268.259765625 351.625976562 268.013671875 360.349609375 267.49609375 360.748046875 c 0
 266.059570312 361.853515625 257.435546875 360.390625 248.333007812 357.490234375 c 0
 239.344726562 354.633789062 222.416992188 352.305664062 189.498046875 352.305664062 c 0
 189.078125 352.305664062 188.654296875 352.305664062 188.228515625 352.306640625 c 1
 188.228515625 296.557617188 l 2
 188.228515625 261.71484375 186.921875 240.80859375 184.744140625 240.80859375 c 0
 182.827148438 240.80859375 172.827148438 257.6640625 143.802734375 315.721679688 c 1
 97.9150390625 552.655273438 l 2
 72.6796875 682.96875 51.3115234375 792.333007812 50.4404296875 795.686523438 c 0
 49.5791015625 799.002929688 50.009765625 801.90625 51.4755859375 801.90625 c 0
 53.009765625 801.90625 69.033203125 793.32421875 87.173828125 782.77734375 c 0
 105.388671875 772.193359375 122.244140625 763.517578125 124.639648438 763.491210938 c 0
 127.03515625 763.474609375 129.700195312 766.984375 130.571289062 771.296875 c 0
 131.43359375 775.608398438 134.961914062 821.331054688 144.673828125 966.670898438 c 1
 155.998046875 971.33984375 l 2
 162.2265625 973.901367188 172.060546875 977.176757812 188.384765625 981.2265625 c 1
 188.02734375 437.672851562 l 1
 228.219726562 421.993164062 l 2
 250.327148438 413.370117188 268.96875 407.09765625 269.657226562 408.055664062 c 0xa0
 270.3359375 409.014648438 273.48046875 520.337890625 276.633789062 655.442382812 c 0
 279.787109375 790.547851562 283.48046875 922.594726562 284.831054688 948.875 c 2x90
EndSplineSet
EndChar

StartChar: P
Encoding: 80 80 27
Width: 508
Flags: W
HStem: 1.41113 72.8623<351.699 416.627>
VStem: 50 134.305<384.141 507.461> 141.771 41.4111<209.546 420.316> 249.706 83.5625<275.921 739.639> 258.513 57.1865<765.147 953.446>
LayerCount: 2
Fore
SplineSet
258.512695312 984.090820312 m 2x88
 258.84375 995.571289062 l 1
 314.017578125 953.446289062 l 1
 315.69921875 931.668945312 l 2x88
 316.622070312 919.69140625 324.532226562 724.090820312 333.268554688 497 c 0
 342.014648438 269.909179688 350.272460938 83.158203125 351.622070312 82.0087890625 c 0
 352.981445312 80.8505859375 372.119140625 77.3662109375 394.157226562 74.2734375 c 0
 432.841796875 68.8291015625 434.6796875 68.1845703125 447.29296875 55.466796875 c 0
 454.479492188 48.2197265625 459.18359375 41.189453125 457.74609375 39.8310546875 c 0
 456.30859375 38.48046875 432.005859375 28.681640625 403.739257812 18.0537109375 c 0
 371.086914062 5.78125 357.948242188 1.4111328125 350.603515625 1.4111328125 c 0
 348.068359375 1.4111328125 346.224609375 1.931640625 344.505859375 2.8271484375 c 0
 340.194335938 5.0751953125 315.499023438 20.2314453125 289.627929688 36.5205078125 c 0
 263.756835938 52.810546875 242.284179688 66.259765625 241.91015625 66.4072265625 c 0
 241.53515625 66.564453125 245.045898438 270.51953125 249.706054688 519.6484375 c 0x90
 254.357421875 768.77734375 258.321289062 977.775390625 258.512695312 984.090820312 c 2x88
161.770507812 908.149414062 m 1
 183.35546875 951.704101562 l 1
 184.139648438 578.881835938 l 2
 184.251953125 524.939453125 184.3046875 473.5234375 184.3046875 427.01953125 c 0xc0
 184.3046875 296.74609375 183.887695312 205.0234375 183.181640625 204.317382812 c 0
 182.223632812 203.359375 172.868164062 205.7109375 162.397460938 209.543945312 c 0
 147.372070312 215.040039062 143.016601562 218.350585938 141.770507812 225.22265625 c 0xa0
 140.908203125 230.013671875 137.36328125 275.884765625 133.896484375 327.157226562 c 0
 128.651367188 404.8515625 126.740234375 420.327148438 122.3984375 420.327148438 c 0
 119.51171875 420.327148438 102.645507812 411.657226562 84.923828125 401.146484375 c 0
 69.7619022955 392.146369369 53.9627374285 384.014164674 50.6368969182 384.014164674 c 0
 50.2208537931 384.014164674 50 384.141421815 50 384.41015625 c 0xc0
 50 392.506835938 70.7080078125 505.908203125 140.185546875 864.595703125 c 1
 161.770507812 908.149414062 l 1
EndSplineSet
EndChar

StartChar: Q
Encoding: 81 81 28
Width: 453
Flags: W
HStem: 913.947 82.1133<292.917 359.162>
VStem: 184.148 108.769<698.122 917.456> 185.029 96.0566<382.182 561.253 693.306 905.285>
LayerCount: 2
Fore
SplineSet
236.965820312 962.65234375 m 2xc0
 266.004882812 980.921875 292.169921875 996.060546875 295.120117188 996.060546875 c 0
 298.279296875 996.060546875 323.493164062 987.5703125 351.40234375 977.125 c 0
 379.483398438 966.60546875 402.889648438 956.666992188 403.400390625 955.046875 c 0
 403.919921875 953.427734375 398.374023438 946.33203125 391.077148438 939.290039062 c 0
 378.400390625 927.0546875 375.944335938 926.217773438 335.557617188 920.504882812 c 0
 312.318359375 917.212890625 293.127929688 914.263671875 292.916992188 913.947265625 c 0xc0
 292.705078125 913.629882812 287.379882812 792.151367188 281.0859375 644 c 0xa0
 275.219726562 505.939453125 270.836914062 388.922851562 270.836914062 370.952148438 c 0
 270.836914062 368.692382812 270.655273438 367.462890625 272.3984375 367.462890625 c 0
 276.650390625 367.462890625 290.306640625 377.459960938 321.47265625 402.952148438 c 0
 348.5859375 425.134765625 371.95703125 443.286132812 373.409179688 443.286132812 c 0
 374.842773438 443.294921875 376.094726562 442.107421875 376.094726562 440.653320312 c 0
 376.094726562 439.142578125 348.749023438 346.935546875 254.571289062 33.6650390625 c 1
 227.282226562 13.1279296875 l 2
 212.801757812 2.228515625 203.05859375 -3.685546875 199.716796875 -3.685546875 c 0
 199.06640625 -3.685546875 198.659179688 -3.4619140625 198.505859375 -3.0078125 c 0
 197.678710938 -0.5869140625 196.0859375 75.8662109375 194.958984375 166.88671875 c 0
 193.823242188 257.908203125 191.930664062 383.875976562 188.603515625 561.252929688 c 1
 73.470703125 695.055664062 l 1
 60.8212890625 740.831054688 l 2
 53.9521484375 765.697265625 48.9453125 787.493164062 50.1904296875 787.493164062 c 0
 51.90234375 787.493164062 81.8251953125 766.678710938 117.247070312 740.831054688 c 0
 153.075195312 714.686523438 183.180664062 693.294921875 184.1484375 693.294921875 c 0xc0
 184.672851562 693.294921875 185.029296875 708.876953125 185.029296875 752.234375 c 0xa0
 185.029296875 788.93359375 184.7734375 845.53125 184.1484375 929.421875 c 1
 236.965820312 962.65234375 l 2xc0
EndSplineSet
EndChar

StartChar: R
Encoding: 82 82 29
Width: 423
Flags: W
HStem: 368.294 90.9092<243.323 307.363>
VStem: 157.795 96.6953<703.643 916.169> 160.703 82.4854<452.839 616.546>
LayerCount: 2
Fore
SplineSet
212.2265625 968.119140625 m 2xc0
 262.891601562 999.762695312 l 1
 317.750976562 979.439453125 l 2
 347.92578125 968.258789062 372.978515625 958.740234375 373.416015625 958.28515625 c 0
 373.861328125 957.831054688 367.567382812 950.951171875 359.4296875 942.997070312 c 0
 344.9453125 928.827148438 343.817382812 928.416015625 304.4296875 922.743164062 c 0
 282.314453125 919.552734375 263.826171875 916.615234375 263.336914062 916.22265625 c 0
 262.856445312 915.8203125 260.268554688 868.293945312 257.59375 810.6015625 c 0
 255.641601562 768.48828125 254.490234375 731.466796875 254.490234375 714.09765625 c 0xc0
 254.490234375 707.671875 254.647460938 703.935546875 254.98046875 703.625976562 c 0
 256.221679688 702.481445312 281.615234375 692.506835938 311.422851562 681.466796875 c 0
 341.23046875 670.426757812 367.515625 660.348632812 369.83203125 659.072265625 c 0
 372.830078125 657.419921875 371.326171875 652.5859375 364.586914062 642.201171875 c 0
 357.095703125 630.663085938 351.500976562 626.493164062 337.646484375 622.140625 c 0
 326.5625 618.65234375 307.060546875 616.624023438 248.485351562 616.545898438 c 1
 246.684570312 557.979492188 l 2
 245.688476562 525.767578125 244.115234375 490.365234375 243.188476562 479.307617188 c 0
 242.157226562 467.10546875 242.865234375 459.203125 244.989257812 459.203125 c 0
 246.912109375 459.203125 276.4140625 448.862304688 310.548828125 436.22265625 c 0
 344.68359375 423.590820312 373.013671875 412.577148438 373.494140625 411.747070312 c 0
 373.974609375 410.924804688 370.504882812 404.3515625 365.79296875 397.140625 c 0
 358.712890625 386.318359375 353.075195312 382.665039062 333.450195312 376.196289062 c 0
 315.120117188 370.165039062 301.466796875 368.364257812 237.99609375 368.293945312 c 1
 237.9609375 346.440429688 l 2
 237.934570312 334.421875 236.754882812 318.783203125 235.338867188 311.685546875 c 0
 232.8828125 299.421875 233.266601562 298.661132812 243.241210938 296.3359375 c 0
 249.009765625 294.990234375 278.905273438 284.53515625 309.674804688 273.1015625 c 0
 340.443359375 261.66796875 367.515625 251.265625 369.83203125 249.990234375 c 0
 372.838867188 248.329101562 371.334960938 243.495117188 364.586914062 233.110351562 c 0
 357.095703125 221.572265625 351.500976562 217.40234375 337.646484375 213.048828125 c 0
 325.609375 209.264648438 306.283203125 207.533203125 231.002929688 207.455078125 c 1
 229.166992188 152.384765625 l 2
 228.162109375 122.096679688 226.422851562 84.7275390625 223.258789062 41.37109375 c 1
 169.814453125 1.650390625 l 1
 167.62890625 26.755859375 l 2
 166.090820312 44.4736328125 148.100585938 109.75390625 106.440429688 248.713867188 c 0
 73.9833984375 356.982421875 48.6171875 446.274414062 50.05859375 447.140625 c 0
 51.5009765625 448.005859375 76.67578125 429.010742188 159.325195312 361.134765625 c 1
 160.522460938 377.831054688 l 2
 160.64453125 379.5234375 160.703125 385.250976562 160.703125 394.391601562 c 0xa0
 160.703125 434.8203125 159.563476562 542.010742188 157.794921875 662 c 0
 156.349609375 760.204101562 155.627929688 827.62109375 155.627929688 870.657226562 c 0
 155.627929688 912.973632812 156.325195312 931.717773438 157.716796875 932.979492188 c 0
 159.83203125 934.90234375 184.368164062 950.71484375 212.2265625 968.119140625 c 2xc0
EndSplineSet
EndChar

StartChar: S
Encoding: 83 83 30
Width: 461
Flags: W
VStem: 159.463 108.895<865.697 926.169> 168.592 78.7324<153.342 639.951> 172.993 60.4316<35.3242 261.666>
LayerCount: 2
Fore
SplineSet
213.010742188 960.25390625 m 2x80
 242.456054688 979.00390625 267.84375 994.452148438 269.427734375 994.584960938 c 0
 270.273500688 994.660001202 270.702987061 986.265121156 270.702987061 972.900915686 c 0
 270.702987061 961.220681217 270.374917285 945.74455104 269.709960938 928.809570312 c 0
 268.836475248 906.590254148 268.358366951 891.719431526 268.358366951 882.025666496 c 0x80
 268.358366951 869.621329354 269.141234743 865.694049974 270.880315192 865.694049974 c 0
 271.248011842 865.694049974 271.658454393 865.86961249 272.11328125 866.177734375 c 0
 274.868164062 868.043945312 307.21875 891.486328125 344.014648438 918.263671875 c 0
 380.819335938 945.041992188 411.3828125 965.702148438 411.954101562 964.170898438 c 0
 412.517578125 962.638671875 407.139648438 940.782226562 386.998046875 869.831054688 c 1
 328.829101562 802.9296875 l 2
 296.83984375 766.133789062 268.609375 733.651367188 266.091796875 730.74609375 c 0
 262.650390625 726.767578125 258.01953125 644.576171875 247.32421875 398 c 0x40
 239.5078125 217.89453125 233.186523438 62.6123046875 233.424804688 35.32421875 c 1
 206.848632812 15.0771484375 l 2
 192.236328125 3.9423828125 178.697265625 -5.1689453125 176.760742188 -5.1689453125 c 0
 174.560546875 -5.1689453125 173.151367188 17.5859375 172.993164062 55.5703125 c 0x20
 172.861328125 88.9775390625 170.880859375 241.75 168.591796875 395.059570312 c 0x40
 166.311523438 548.37890625 163.64453125 674.504882812 162.676757812 675.350585938 c 0
 161.708007812 676.186523438 140.317382812 683.326171875 115.141601562 691.204101562 c 0
 71.5234375 704.848632812 68.9091796875 706.204101562 50 734.267578125 c 1
 61.4443359375 739.091796875 l 2
 67.73828125 741.75 93.345703125 751.653320312 163.837890625 778.282226562 c 1
 159.462890625 926.168945312 l 1
 213.010742188 960.25390625 l 2x80
EndSplineSet
EndChar

StartChar: T
Encoding: 84 84 31
Width: 455
Flags: W
VStem: 186.372 72.9507<522.468 733.721> 200.507 55.8652<737.788 949.041>
LayerCount: 2
Fore
SplineSet
226.73046875 975.96484375 m 2x40
 241.154296875 990.772460938 254.493164062 1002.08300781 256.372070312 1001.10449219 c 0x40
 258.229460106 1000.14231964 259.322798528 933.927920974 259.322798528 660.870825742 c 0
 259.322798528 611.335970099 259.286817839 554.994125242 259.212890625 491 c 1
 206.58203125 312.677734375 l 2
 177.630859375 214.600585938 152.61328125 130.422851562 150.970703125 125.615234375 c 0
 149.08203125 120.055664062 149.440429688 114.741210938 151.966796875 111 c 0
 155.026367188 106.471679688 176.3203125 101.952148438 245.096679688 91.2177734375 c 0
 289.215775226 84.3365475835 326.917823016 79.4220148556 334.90315574 79.4220148556 c 0
 335.793468075 79.4220148556 336.314378151 79.4831063826 336.43359375 79.609375 c 0
 337.630859375 80.876953125 341.564453125 93.5 345.174804688 107.66015625 c 0
 351.696289062 133.237304688 351.887695312 133.5 371.853515625 145.248046875 c 0
 382.911132812 151.759765625 392.579101562 156.690429688 393.338867188 156.208984375 c 0
 394.090820312 155.728515625 397.630859375 128.1328125 401.206054688 94.8896484375 c 0
 404.37505045 65.3358286999 405.989464963 50.2315067817 405.989464963 42.3336296423 c 0
 405.989464963 34.1317762553 404.248386635 33.7017712511 400.69921875 32.931640625 c 0
 396.853515625 32.1005859375 340.99609375 25.7900390625 159.431640625 6.4365234375 c 1
 50 116.874023438 l 1
 186.372070312 522.467773438 l 1x80
 200.506835938 949.041015625 l 1
 226.73046875 975.96484375 l 2x40
EndSplineSet
EndChar

StartChar: U
Encoding: 85 85 32
Width: 540
Flags: W
VStem: 179.415 96.46<466.954 826.564> 184.939 83.0977<346.343 364.699 455.167 646.261> 190.49 62.3252<93.7207 364.412>
LayerCount: 2
Fore
SplineSet
235.166992188 964.620117188 m 2x80
 285.673828125 996.369140625 l 1
 308.592773438 987.836914062 l 2
 321.20703125 983.15234375 345.682617188 974.139648438 362.990234375 967.811523438 c 0
 380.297851562 961.482421875 394.877929688 954.970703125 395.384765625 953.3359375 c 0
 395.901367188 951.701171875 390.393554688 944.690429688 383.147460938 937.758789062 c 0
 370.594726562 925.739257812 368.025390625 924.874023438 328.016601562 919.279296875 c 0
 304.939453125 916.053710938 285.8046875 913.073242188 285.490234375 912.662109375 c 0
 285.17578125 912.243164062 280.848632812 811.595703125 275.875 689 c 0x80
 271.337890625 577.158203125 268.037109375 482.884765625 268.037109375 466.111328125 c 0x40
 268.037109375 460.83203125 274.548828125 459.450195312 284.73828125 456.657226562 c 0
 293.15625 454.349609375 325.21875 442.907226562 355.997070312 431.228515625 c 0
 386.766601562 419.55078125 412.727539062 409.262695312 413.689453125 408.37890625 c 0
 414.651367188 407.487304688 411.110351562 400.442382812 405.822265625 392.723632812 c 0
 397.919921875 381.194335938 392.299804688 377.435546875 374.353515625 371.657226562 c 0
 357.426757812 366.217773438 343.5234375 364.698242188 267.337890625 364.698242188 c 0
 266.021484375 364.698242188 264.685546875 364.698242188 263.331054688 364.69921875 c 1
 261.696289062 346.342773438 l 2
 260.795898438 336.24609375 258.41796875 284.716796875 256.42578125 231.83203125 c 0
 254.423828125 178.947265625 252.797851562 126.237304688 252.815429688 93.720703125 c 1
 330.629882812 82.0947265625 l 2
 373.426757812 75.7041015625 411.591796875 69.7080078125 415.4375 68.7724609375 c 0
 416.266601562 68.5693359375 417.013671875 68.447265625 417.697265625 68.447265625 c 0
 422.106445312 68.447265625 423.946289062 73.4990234375 428.864257812 94.3759765625 c 0
 435.2890625 121.657226562 435.32421875 121.709960938 456.05859375 135.678710938 c 0
 467.474609375 143.370117188 477.508789062 148.877929688 478.357421875 147.916015625 c 0
 479.196289062 146.954101562 482.692382812 118.96484375 486.127929688 85.712890625 c 0
 489.137695312 56.5087890625 490.685546875 41.41015625 490.685546875 33.43359375 c 0
 490.685546875 24.98046875 488.947265625 24.5244140625 485.3671875 23.7548828125 c 0
 481.521484375 22.9248046875 425.665039062 16.666015625 361.2421875 9.8388671875 c 0
 296.809570312 3.0205078125 243.96875 -2.1455078125 243.802734375 -1.6298828125 c 0
 243.645507812 -1.1044921875 231.583007812 14.2626953125 190.490234375 65.748046875 c 1x20
 184.939453125 397.916015625 l 2x40
 181.888671875 580.608398438 179.397460938 752.504882812 179.415039062 829.734375 c 1
 146.198242188 829.734375 l 2
 125.140625 829.734375 105.061523438 831.971679688 91.3466796875 835.853515625 c 0
 73.26953125 840.966796875 68.068359375 844.279296875 59.7734375 855.958007812 c 0
 54.3095703125 863.650390625 49.9130859375 870.73046875 50.0009765625 871.692382812 c 0
 50.087890625 872.654296875 74.9130859375 882.6796875 105.17578125 893.982421875 c 0
 135.428710938 905.276367188 165.69140625 918.650390625 172.421875 923.694335938 c 0
 179.15234375 928.74609375 207.38671875 947.155273438 235.166992188 964.620117188 c 2x80
EndSplineSet
EndChar

StartChar: V
Encoding: 86 86 33
Width: 510
Flags: W
VStem: 220.834 111.023<801.663 932.789> 227.158 82.8418<313.142 555.471> 232.141 74.1417<306.99 359.442>
LayerCount: 2
Fore
SplineSet
274.74609375 966.236328125 m 2x80
 304.39453125 984.631835938 329.825195312 998.561523438 331.24609375 997.184570312 c 0
 331.629652292 996.814983319 331.857227629 993.213085608 331.857227629 985.12875214 c 0x80
 331.857227629 963.264549626 330.192650055 908.614008645 325.447265625 796.447265625 c 1
 364.043945312 796.403320312 l 2
 390.9296875 796.368164062 408.420898438 794.508789062 421.693359375 790.262695312 c 0
 436.473632812 785.53515625 442.982421875 781.026367188 450.737304688 770.131835938 c 0
 456.237304688 762.412109375 460.702148438 755.306640625 460.658203125 754.341796875 c 0
 460.614257812 753.376953125 430.96484375 741.736328125 394.772460938 728.482421875 c 0
 358.5703125 715.21875 326.982421875 703.771484375 324.5703125 703.043945312 c 0
 321.53515625 702.123046875 320.184570312 693.043945312 320.184570312 645.5703125 c 1
 363.166992188 645.297851562 l 2
 394.552734375 645.096679688 410.876953125 643.368164062 423.693359375 638.868164062 c 0
 436.587890625 634.350585938 444.026367188 628.859375 451.763671875 618.149414062 c 0
 457.552734375 610.131835938 461.5 603.03515625 460.53515625 602.368164062 c 0
 459.5703125 601.709960938 432.728515625 591.53515625 400.885742188 579.75390625 c 0
 369.043945312 567.982421875 336.67578125 556.53515625 314.920898438 550.280273438 c 1
 310 430.376953125 l 2x40
 307.757556735 375.636529522 306.282374931 328.065962359 306.282374931 312.383237481 c 0
 306.282374931 309.175078462 306.344107489 307.30134349 306.473632812 306.973632812 c 0
 307.237304688 305.043945312 330.5 294.780273438 358.158203125 284.166992188 c 0
 405.991210938 265.815429688 408.920898438 264.131835938 417.833984375 249.850585938 c 0
 422.982421875 241.587890625 426.412109375 234.131835938 425.447265625 233.280273438 c 0
 424.482421875 232.438476562 398.4296875 224.473632812 367.552734375 215.587890625 c 0
 336.67578125 206.702148438 308.81640625 197.5703125 305.649414062 195.306640625 c 0
 300.8515625 191.868164062 299.263671875 178.727539062 296.061523438 115.745117188 c 0
 292.728515625 50.10546875 291.4296875 39.7802734375 286.03515625 36.2275390625 c 0
 282.623046875 33.9912109375 270.3515625 25.0087890625 237.719726562 0.412109375 c 1
 235.079101562 69.482421875 l 2
 233.623046875 107.473632812 232.043945312 138.973632812 231.5703125 139.482421875 c 0
 231.096679688 140 192.017578125 116.482421875 144.737304688 87.21875 c 0
 97.4560546875 57.96484375 56.798828125 33.46484375 54.3857421875 32.7802734375 c 0
 51.9736328125 32.0966796875 50 33.1142578125 50 35.0439453125 c 0
 50 36.9736328125 57.052734375 57.89453125 81.3427734375 124.517578125 c 1
 232.140625 271.885742188 l 1x20
 227.158203125 578.903320312 l 2x40
 224.420898438 747.762695312 221.876953125 896.46484375 220.833984375 932.7890625 c 1
 274.74609375 966.236328125 l 2x80
EndSplineSet
EndChar

StartChar: W
Encoding: 87 87 34
Width: 474
Flags: W
HStem: 0.210938 71.3906<117.379 300.873>
VStem: 187.983 85.2227<608 858.21> 194.167 66.0938<711.201 972.716> 310.866 113.974<93.5855 270.646>
LayerCount: 2
Fore
SplineSet
201.987304688 995.0546875 m 0xb0
 202.885742188 996.549804688 205.634765625 996.549804688 208.099609375 995.0546875 c 0
 210.5546875 993.560546875 223.27734375 984.334960938 236.364257812 974.547851562 c 0
 259.504882812 957.244140625 260.163085938 956.309570312 260.260742188 940.740234375 c 0xb0
 260.314453125 931.932617188 263.241210938 853.462890625 273.206054688 608 c 1
 412.405273438 273.48046875 l 1
 418.27734375 191.629882812 l 2
 421.528320312 146.309570312 424.83984375 106.490234375 424.83984375 102.00390625 c 0
 424.83984375 96.1396484375 411.166992188 83.78515625 366.782226562 49.3876953125 c 0
 334.487304688 24.361328125 306.461914062 2.4482421875 304.504882812 0.6953125 c 0
 304.140625 0.369140625 302.3828125 0.2109375 299.362304688 0.2109375 c 0
 284.747070312 0.2109375 240.572265625 3.9091796875 181.720703125 10.162109375 c 0
 116.150390625 17.119140625 59.30078125 23.498046875 55.3857421875 24.34375 c 0
 51.7724609375 25.1142578125 50 25.5478515625 50 33.904296875 c 0
 50 41.9453125 51.640625 57.322265625 54.8603515625 87.39453125 c 0
 58.490234375 121.23828125 62.09375 149.325195312 62.8681640625 149.814453125 c 0
 63.650390625 150.3046875 73.490234375 145.286132812 84.7451171875 138.658203125 c 0
 105.065429688 126.701171875 105.251953125 126.434570312 111.889648438 100.40234375 c 0
 115.563476562 85.9892578125 119.567382812 73.125 120.786132812 71.81640625 c 0
 120.920898438 71.671875 121.56640625 71.6015625 122.677734375 71.6015625 c 0
 131.602539062 71.6015625 170.555664062 76.1083984375 216.080078125 82.4931640625 c 0
 267.271484375 89.6728515625 309.922851562 96.3447265625 310.866210938 97.32421875 c 0
 311.80078125 98.302734375 315.643554688 139.138671875 326.212890625 277.0390625 c 1
 187.983398438 608 l 1xd0
 194.166992188 800.170898438 l 2
 197.565429688 905.864257812 201.080078125 993.560546875 201.987304688 995.0546875 c 0xb0
EndSplineSet
EndChar

StartChar: X
Encoding: 88 88 35
Width: 515
Flags: W
VStem: 54.0127 53.5537<73.0497 137.725> 271.652 82.8389<261.375 616.099> 285.778 63.3477<94.0004 329.428>
LayerCount: 2
Fore
SplineSet
304.372070312 963.935546875 m 1xc0
 358.745117188 997.358398438 l 1
 410.086914062 978.299804688 l 2
 438.327148438 967.8203125 462.99609375 957.872070312 464.912109375 956.200195312 c 0
 467.125 954.275390625 463.702148438 948.377929688 455.548828125 940.09375 c 0
 443.196289062 927.541015625 441.114257812 926.791992188 401.541015625 920.825195312 c 0
 383.98046875 918.169921875 368.42578125 915.368164062 361.884765625 913.751953125 c 1
 359.041015625 697.108398438 356.546875 516.89453125 354.491210938 373.029296875 c 0xc0
 352.383789062 225.46875 349.970703125 96.896484375 349.125976562 87.3154296875 c 0
 347.766601562 71.853515625 344.552734375 66.025390625 320.563476562 35.564453125 c 2
 293.533203125 1.2353515625 l 1
 271.930664062 4.109375 217.836914062 9.9892578125 159.38671875 16.173828125 c 0
 100.9375 22.349609375 51.9482421875 28.3427734375 50.5283203125 29.484375 c 0
 50.1689453125 29.7705078125 50 31.751953125 50 35.0830078125 c 0
 50 45.009765625 51.5078125 66.92578125 54.0126953125 91.6787109375 c 0
 57.34765625 124.739257812 61.2587890625 151.783203125 62.6962890625 151.783203125 c 0
 64.134765625 151.783203125 74.029296875 145.895507812 84.68359375 138.708984375 c 0
 100.51953125 128.038085938 104.708984375 123.08984375 107.56640625 111.705078125 c 0
 109.5 104.040039062 112.532226562 91.888671875 114.326171875 84.7021484375 c 0
 116.782226562 74.8154296875 119.055664062 71.9931640625 123.672851562 73.0986328125 c 0
 127.026367188 73.900390625 164.265625 79.5888671875 206.42578125 85.73828125 c 0
 252.7890625 92.4921875 285.778320312 94.30078125 285.778320312 103.99609375 c 0xa0
 285.778320312 134.58203125 279.854492188 304.034179688 271.65234375 506 c 0
 262.6015625 728.61328125 251.421875 929.618164062 250.463867188 930.680664062 c 1
 304.372070312 963.935546875 l 1xc0
EndSplineSet
EndChar

StartChar: Y
Encoding: 89 89 36
Width: 314
Flags: W
HStem: 372.381 89.7655<129.673 193.473>
VStem: 57.0254 72.5517<456.618 687.304> 61.8096 50.8623<12.2382 248.399> 61.8965 58.7578<12.2382 364.408>
LayerCount: 2
Fore
SplineSet
104.111328125 961.810546875 m 1xc0
 158.223632812 995.741210938 l 1
 209.29296875 976.741210938 l 2
 237.370117188 966.29296875 261.904296875 956.37890625 263.801757812 954.724609375 c 0
 265.991210938 952.819335938 262.602539062 946.982421875 254.54296875 938.784179688 c 0
 242.154296875 926.189453125 240.689453125 925.689453125 196.37890625 918.965820312 c 0
 171.37890625 915.172851562 149.698242188 911.29296875 148.198242188 910.344726562 c 0
 146.698242188 909.396484375 141.448242188 814.741210938 136.516601562 700 c 0
 131.596625437 585.507507464 129.577119856 485.219833622 129.577119856 476.77832217 c 0xc0
 129.577119856 467.26614546 131.107645279 462.146619893 133.91958512 462.146619893 c 0
 136.38938646 462.146619893 163.439919787 451.982536581 196.559570312 439.526367188 c 0
 229.75 427.034179688 257.29296875 416.137695312 257.766601562 415.301757812 c 0
 258.241210938 414.474609375 254.361328125 407.526367188 249.146484375 399.862304688 c 0
 241.456054688 388.577148438 235.741210938 384.646484375 218.973632812 379.146484375 c 0
 203.616779942 374.10139715 188.993096696 372.378787043 161.610563791 372.378787043 c 0
 160.118670805 372.378787043 158.619044408 372.381150629 157.235856592 372.381150629 c 0
 125.770474385 372.381150629 129.03013531 371.839181582 127.646484375 364.655273438 c 0
 126.818359375 360.387695312 123.680664062 291.724609375 120.654296875 212.069335938 c 0x90
 117.637695312 132.4140625 114.04296875 52.103515625 112.671875 33.5947265625 c 0
 111.302553031 15.0966800315 109.019253871 -0.0254059274086 107.588429443 -0.0254059274086 c 0
 106.168611986 -0.0254059274086 91.4055433074 5.82444265193 61.8095703125 25.8623046875 c 1xa0
 61.896484375 81.0341796875 l 2x90
 61.939453125 111.37890625 59.75 278.965820312 57.025390625 453.448242188 c 0
 54.29296875 627.930664062 51.6025390625 806.060546875 50 927.87890625 c 1
 104.111328125 961.810546875 l 1xc0
EndSplineSet
EndChar

StartChar: Z
Encoding: 90 90 37
Width: 463
Flags: W
VStem: 173.148 93.6504<662.171 919.359> 192.796 66.5382<315.977 553.285> 205.787 44.7061<25.3037 216.083>
LayerCount: 2
Fore
SplineSet
105.36328125 980.46875 m 0x80
 131.304594275 989.999017562 154.876857934 997.183537884 159.987338484 997.183537884 c 0
 160.31306362 997.183537884 160.563790233 997.154351731 160.735351562 997.094726562 c 0
 163.58984375 996.099609375 189.108398438 981.022460938 268.987304688 931.87890625 c 1
 266.798828125 838.453125 l 2x80
 265.596679688 787.068359375 262.231445312 603.33203125 259.333984375 430.1484375 c 0x40
 256.426757812 256.96484375 253.251953125 95.02734375 250.493164062 25.3037109375 c 1
 226.565429688 12.328125 l 2
 216.150390625 5.19140625 206.798828125 -0.2578125 205.787109375 0.2177734375 c 0x20
 204.766601562 0.693359375 201.798828125 50.130859375 199.186523438 110.079101562 c 0
 196.583007812 170.02734375 194.298828125 219.46484375 194.1171875 219.940429688 c 0
 193.941432954 220.401549141 178.442978304 220.763924539 153.72515456 220.763924539 c 0
 152.897346258 220.763924539 152.059197485 220.763518098 151.2109375 220.762695312 c 0
 150.89767489 220.762462711 150.585895365 220.762345929 150.275588272 220.762345929 c 0
 115.410183905 220.762345929 99.1331386232 222.23663006 86.33203125 226.549804688 c 0
 76.81640625 229.75 67.2060546875 234.828125 64.96484375 237.830078125 c 0
 62.724609375 240.840820312 58.4423828125 247.579101562 50 262.328125 c 1
 111.41796875 284.724609375 l 2
 145.198242188 297.04296875 177.327148438 308.33203125 182.811523438 309.810546875 c 0
 188.295898438 311.290039062 191.58984375 314.05859375 192.576171875 315.961914062 c 0
 192.721960422 316.24088861 192.795818682 319.39226526 192.795818682 325.083748795 c 0x40
 192.795818682 358.202824304 190.294871519 477.333580628 184.913085938 617 c 0
 178.615234375 780.666992188 173.321289062 914.975585938 173.1484375 915.459960938 c 0
 172.984375 915.944335938 151.038085938 919.568359375 124.39453125 923.513671875 c 0
 79.15234375 930.208984375 75.20703125 931.411132812 64.583984375 941.662109375 c 0
 58.330078125 947.700195312 53.6591796875 954.75 54.2041015625 957.336914062 c 0
 54.7490234375 959.923828125 77.767578125 970.330078125 105.36328125 980.46875 c 0x80
357.966796875 267.172851562 m 0
 385.561523438 290.961914062 409.307617188 310.502929688 410.735351562 310.598632812 c 0
 412.162109375 310.693359375 413.295898438 309.603515625 413.251953125 308.17578125 c 0
 413.208984375 306.749023438 396.072265625 241.740234375 375.1640625 163.711914062 c 0
 354.264648438 85.6845703125 336.392578125 21.0654296875 335.44921875 20.1142578125 c 0
 334.515625 19.162109375 333.018554688 19.162109375 332.119140625 20.1142578125 c 0
 331.228515625 21.0654296875 322.672851562 64.6640625 313.114257812 117 c 0
 302.499293382 175.098271998 298.47158973 197.943987016 298.47158973 208.33639368 c 0
 298.47158973 214.112382455 299.715754571 216.041522069 301.764648438 218.038085938 c 0
 305.077148438 221.2734375 330.372070312 243.383789062 357.966796875 267.172851562 c 0
EndSplineSet
EndChar

StartChar: quotesingle
Encoding: 39 39 64
Width: 214
Flags: W
HStem: 773.114 290.484
VStem: 49.9999 114.78
LayerCount: 2
Fore
SplineSet
109.495117188 1020.17285156 m 4
 137.08984375 1043.96191406 160.8359375 1063.50292969 162.263671875 1063.59863281 c 4
 163.690429688 1063.69335938 164.82421875 1062.60351562 164.780273438 1061.17578125 c 4
 164.737304688 1059.74902344 147.600585938 994.740234375 126.692382812 916.711914062 c 4
 105.79296875 838.684570312 87.9208984375 774.065429688 86.9775390625 773.114257812 c 4
 86.0439453125 772.162109375 84.546875 772.162109375 83.6474609375 773.114257812 c 4
 82.7568359375 774.065429688 74.201171875 817.6640625 64.642578125 870 c 4
 54.0276136946 928.098271998 49.9999100428 950.943987016 49.9999100428 961.33639368 c 0
 49.9999100428 967.112382455 51.2440748837 969.041522069 53.29296875 971.038085938 c 4
 56.60546875 974.2734375 81.900390625 996.383789062 109.495117188 1020.17285156 c 4
EndSplineSet
EndChar

StartChar: period
Encoding: 46 46 65
Width: 263
Flags: W
HStem: 2.25977 258.639
VStem: 50.0001 163.773
LayerCount: 2
Fore
SplineSet
54.9990234375 192.87890625 m 4
 57.6904296875 229.212890625 60.6630859375 259.821289062 61.60546875 260.8984375 c 4
 62.546875 261.974609375 64.1201171875 262.004882812 65.0986328125 260.96484375 c 4
 66.076171875 259.92578125 99.927734375 201.83984375 140.317382812 131.880859375 c 4
 180.712890625 61.9296875 213.767578125 3.599609375 213.7734375 2.259765625 c 4
 213.787109375 0.92578125 212.728515625 -0.1328125 211.418945312 -0.0947265625 c 4
 210.116210938 -0.052734375 173.23828125 24.7265625 129.471679688 54.974609375 c 4
 54.7540942524 106.607794949 50.0001051804 110.306724208 50.0001051804 118.118558475 c 0
 50.0001051804 123.090372718 52.2872949765 156.270572026 54.9990234375 192.87890625 c 4
EndSplineSet
EndChar

StartChar: hyphen
Encoding: 45 45 66
Width: 504
Flags: W
HStem: 562.725 76.21<379.185 413>
LayerCount: 2
Fore
SplineSet
378.088867188 638.934570312 m 1
 388.844726562 632.337890625 408.486328125 620.12890625 421.73828125 611.80078125 c 0
 442.799804688 598.556640625 446.54296875 594.62890625 451.505859375 580.548828125 c 0
 454.626953125 571.693359375 455.743164062 563.223632812 453.631835938 562.724609375 c 0
 406.359375 551.525390625 208.076171875 491.314453125 148.583984375 470.217773438 c 1
 98.0924518688 450.893295296 55.7104024782 436.234081209 50.5558793178 436.234081209 c 0
 50.2561316218 436.234081209 50.0822761466 436.283654232 50.0400390625 436.384765625 c 0
 49.2685546875 438.217773438 59.3271484375 457.454101562 96.1484375 518.549804688 c 1
 154.544921875 562.921875 242.274414062 608.711914062 378.088867188 638.934570312 c 1
EndSplineSet
EndChar

StartChar: question
Encoding: 63 63 67
Width: 474
Flags: W
HStem: 924.786 71.3904<117.379 300.873>
VStem: 194.167 79.0391<143.259 388.388> 194.167 66.0938<23.6714 285.187> 310.866 113.974<725.742 902.802>
LayerCount: 2
Fore
SplineSet
201.987304688 1.3330078125 m 0xb0
 201.080078125 2.8271484375 197.565429688 90.5234375 194.166992188 196.216796875 c 2
 187.983398438 388.387695312 l 1
 326.212890625 719.348632812 l 1
 315.643554688 857.249023438 311.80078125 898.084960938 310.866210938 899.063476562 c 0
 309.922851562 900.04296875 267.271484375 906.71484375 216.080078125 913.89453125 c 0
 170.555373447 920.279331784 131.602133052 924.785909127 122.677748115 924.785909127 c 0
 121.566691124 924.785909127 120.921064659 924.716059689 120.786132812 924.571289062 c 0
 119.567382812 923.262695312 115.563476562 910.3984375 111.889648438 895.985351562 c 0
 105.251953125 869.953125 105.065429688 869.686523438 84.7451171875 857.729492188 c 0
 73.490234375 851.1015625 63.650390625 846.083007812 62.8681640625 846.573242188 c 0
 62.09375 847.0625 58.490234375 875.149414062 54.8603515625 908.993164062 c 0
 51.6408072918 939.06570929 50.000057678 954.442759644 50.000057678 962.483711831 c 0
 50.000057678 970.84020654 51.772106309 971.273540638 55.3857421875 972.043945312 c 0
 59.30078125 972.889648438 116.150390625 979.268554688 181.720703125 986.225585938 c 0
 240.571868632 992.478289597 284.746846518 996.176309103 299.362267445 996.176309103 c 0
 302.382770923 996.176309103 304.140766963 996.018364343 304.504882812 995.692382812 c 0
 306.461914062 993.939453125 334.487304688 972.026367188 366.782226562 947 c 0
 411.166832904 912.602576924 424.840009303 900.247610347 424.840009303 894.383368604 c 0
 424.840009303 889.894753783 421.528811323 850.081717003 418.27734375 804.7578125 c 2
 412.405273438 722.907226562 l 1
 273.206054688 388.387695312 l 1xd0
 263.241210938 142.924804688 260.314453125 64.455078125 260.260742188 55.6474609375 c 0
 260.163085938 40.078125 259.504882812 39.1435546875 236.364257812 21.83984375 c 0
 223.27734375 12.052734375 210.5546875 2.8271484375 208.099609375 1.3330078125 c 0
 205.634765625 -0.162109375 202.885742188 -0.162109375 201.987304688 1.3330078125 c 0xb0
EndSplineSet
EndChar

StartChar: exclam
Encoding: 33 33 68
Width: 235
Flags: W
VStem: 53.2373 132.251
LayerCount: 2
Fore
SplineSet
75.9345703125 168.755859375 m 6
 65.0751953125 146.74609375 55.2470703125 130.834960938 53.2373046875 132.020507812 c 4
 51.0449176756 133.300287124 50.0002939514 230.471057789 50.0002939514 433.365458177 c 0
 50.0002939514 453.880410602 50.0109736941 475.476231803 50.0322265625 498.163085938 c 4
 50.31458561 785.776340474 51.2573460292 861.008370255 54.6154044513 861.008370255 c 0
 56.8501567777 861.008370255 66.9495297588 857.173851199 93.33984375 848.533203125 c 5
 99.654296875 753.146484375 l 6
 103.116210938 700.680664062 106.595703125 655.818359375 107.38671875 653.456054688 c 4
 108.16796875 651.092773438 111.509765625 649.16015625 114.817382812 649.168945312 c 4
 118.125 649.168945312 133.975585938 657.055664062 150.041015625 666.685546875 c 4
 166.106445312 676.31640625 180.796875 684.426757812 182.6875 684.71875 c 4
 184.577148438 685.001953125 185.83984375 682.922851562 185.48828125 680.087890625 c 4
 185.135742188 677.252929688 164.645507812 569.778320312 95.0751953125 207.579101562 c 5
 75.9345703125 168.755859375 l 6
EndSplineSet
EndChar

StartChar: comma
Encoding: 44 44 69
Width: 263
Flags: W
HStem: 0.391602 261.061
VStem: 52.3555 161.419
LayerCount: 2
Fore
SplineSet
208.774414062 193.366210938 m 4
 211.485874371 156.761496767 213.774308881 123.5747029 213.774308881 118.60586348 c 0
 213.774308881 110.794028996 209.020309531 107.095100337 134.301757812 55.4619140625 c 4
 90.5361328125 25.2138671875 53.6572265625 0.4345703125 52.35546875 0.3916015625 c 4
 51.0458984375 0.3544921875 49.9873046875 1.4130859375 50 2.7470703125 c 4
 50.005859375 4.0859375 83.0615234375 62.416015625 123.45703125 132.368164062 c 4
 163.846679688 202.327148438 197.697265625 260.412109375 198.67578125 261.452148438 c 4
 199.654296875 262.4921875 201.2265625 262.4609375 202.168945312 261.385742188 c 4
 203.110351562 260.30859375 206.083984375 229.69921875 208.774414062 193.366210938 c 4
EndSplineSet
EndChar

StartChar: quotedbl
Encoding: 34 34 70
Width: 374
Flags: W
HStem: 773.114 290.484
VStem: 49.9999 274.78
LayerCount: 2
Fore
SplineSet
109.495117188 1020.17285156 m 4
 137.08984375 1043.96191406 160.8359375 1063.50292969 162.263671875 1063.59863281 c 4
 163.690429688 1063.69335938 164.82421875 1062.60351562 164.780273438 1061.17578125 c 4
 164.737304688 1059.74902344 147.600585938 994.740234375 126.692382812 916.711914062 c 4
 105.79296875 838.684570312 87.9208984375 774.065429688 86.9775390625 773.114257812 c 4
 86.0439453125 772.162109375 84.546875 772.162109375 83.6474609375 773.114257812 c 4
 82.7568359375 774.065429688 74.201171875 817.6640625 64.642578125 870 c 4
 54.0276136946 928.098271998 49.9999100428 950.943987016 49.9999100428 961.33639368 c 0
 49.9999100428 967.112382455 51.2440748837 969.041522069 53.29296875 971.038085938 c 4
 56.60546875 974.2734375 81.900390625 996.383789062 109.495117188 1020.17285156 c 4
269.495117188 1020.17285156 m 0
 297.08984375 1043.96191406 320.8359375 1063.50292969 322.263671875 1063.59863281 c 0
 323.690429688 1063.69335938 324.82421875 1062.60351562 324.780273438 1061.17578125 c 0
 324.737304688 1059.74902344 307.600585938 994.740234375 286.692382812 916.711914062 c 0
 265.79296875 838.684570312 247.920898438 774.065429688 246.977539062 773.114257812 c 0
 246.043945312 772.162109375 244.546875 772.162109375 243.647460938 773.114257812 c 0
 242.756835938 774.065429688 234.201171875 817.6640625 224.642578125 870 c 0
 214.027613695 928.098271998 209.999910043 950.943987016 209.999910043 961.33639368 c 0
 209.999910043 967.112382455 211.244074884 969.041522069 213.29296875 971.038085938 c 0
 216.60546875 974.2734375 241.900390625 996.383789062 269.495117188 1020.17285156 c 0
EndSplineSet
EndChar

StartChar: dollar
Encoding: 36 36 71
Width: 529
Flags: W
HStem: 0.211386 71.3904<172.367 355.861>
VStem: 242.972 85.2227<608 858.21> 249.155 66.0938<711.201 972.716> 365.854 113.974<93.5858 270.646>
LayerCount: 2
Fore
SplineSet
159.612304688 954.263671875 m 2x90
 170.471679688 976.2734375 180.299804688 992.184570312 182.309570312 990.999023438 c 0
 184.501957324 989.719244126 185.546581049 892.548473461 185.546581049 689.654073073 c 0
 185.546581049 669.139120648 185.535901306 647.543299447 185.514648438 624.856445312 c 0
 185.23228939 337.243190776 184.289528971 262.011160995 180.931470549 262.011160995 c 0
 178.696718222 262.011160995 168.597345241 265.845680051 142.20703125 274.486328125 c 1
 135.892578125 369.873046875 l 2
 132.430664062 422.338867188 128.951171875 467.201171875 128.16015625 469.563476562 c 0
 127.37890625 471.926757812 124.037109375 473.859375 120.729492188 473.850585938 c 0
 117.421875 473.850585938 101.571289062 465.963867188 85.505859375 456.333984375 c 0
 69.4404296875 446.703125 54.75 438.592773438 52.859375 438.30078125 c 0
 50.9697265625 438.017578125 49.70703125 440.096679688 50.05859375 442.931640625 c 0
 50.4111328125 445.766601562 70.9013671875 553.241210938 140.471679688 915.440429688 c 1
 159.612304688 954.263671875 l 2x90
256.975585938 995.0546875 m 4
 257.874023438 996.549804688 260.623046875 996.549804688 263.087890625 995.0546875 c 4
 265.54296875 993.560546875 278.265625 984.334960938 291.352539062 974.547851562 c 4
 314.493164062 957.244140625 315.151367188 956.309570312 315.249023438 940.740234375 c 4xb0
 315.302734375 931.932617188 318.229492188 853.462890625 328.194335938 608 c 5
 467.393554688 273.48046875 l 5
 473.265625 191.629882812 l 6
 476.516826101 146.309692809 479.828290553 106.489786121 479.828290553 102.004326709 c 0
 479.828290553 96.1400849658 466.155114154 83.7851183885 421.770507812 49.3876953125 c 4
 389.475585938 24.361328125 361.450195312 2.4482421875 359.493164062 0.6953125 c 4
 359.129048213 0.369330969826 357.371052173 0.21138620971 354.350548695 0.21138620971 c 0
 339.735127768 0.21138620971 295.560149882 3.90940571556 236.708984375 10.162109375 c 4
 171.138671875 17.119140625 114.2890625 23.498046875 110.374023438 24.34375 c 4
 106.760387559 25.1141546743 104.988338928 25.5474887726 104.988338928 33.9039834811 c 0
 104.988338928 41.9449356687 106.629088542 57.3219860222 109.848632812 87.39453125 c 4
 113.478515625 121.23828125 117.08203125 149.325195312 117.856445312 149.814453125 c 4
 118.638671875 150.3046875 128.478515625 145.286132812 139.733398438 138.658203125 c 4
 160.053710938 126.701171875 160.240234375 126.434570312 166.877929688 100.40234375 c 4
 170.551757812 85.9892578125 174.555664062 73.125 175.774414062 71.81640625 c 4
 175.909345909 71.6716356233 176.554972374 71.601786186 177.666029365 71.601786186 c 0
 186.590414302 71.601786186 225.543654697 76.1083635285 271.068359375 82.4931640625 c 4
 322.259765625 89.6728515625 364.911132812 96.3447265625 365.854492188 97.32421875 c 4
 366.7890625 98.302734375 370.631835938 139.138671875 381.201171875 277.0390625 c 5
 242.971679688 608 l 5xd0
 249.155273438 800.170898438 l 6xb0
 252.553710938 905.864257812 256.068359375 993.560546875 256.975585938 995.0546875 c 4
EndSplineSet
EndChar

StartChar: ampersand
Encoding: 38 38 72
Width: 591
Flags: W
HStem: 798.912 82.0693<431.162 497.503>
VStem: 148.378 89.2363<352.142 901.411> 150.551 74.7829<346.662 522.539> 320.158 111.004<541.734 802.516> 329.7 82.8965<85.388 504.422> 334.807 59.9447<15.0856 253.042>
LayerCount: 2
Fore
SplineSet
374.13671875 846.587890625 m 2x90
 403.819590289 865.393388223 430.513139643 880.981437327 433.462177029 880.981437327 c 0
 436.62229365 880.981437327 461.835143928 872.500057782 489.744140625 862.0546875 c 0
 517.825195312 851.53515625 541.223632812 841.596679688 541.743164062 839.9765625 c 0
 542.252929688 838.357421875 536.708007812 831.340820312 529.418945312 824.38671875 c 0
 516.831054688 812.388671875 513.978515625 811.4296875 473.899414062 805.627929688 c 0
 450.66015625 802.274414062 431.42578125 799.24609375 431.162109375 798.912109375 c 0x90
 430.897460938 798.568359375 422.543945312 567.362304688 412.596679688 334 c 0x88
 402.730018126 102.527693569 394.751328921 54.1445088203 394.751328921 45.8153307692 c 0
 394.751328921 32.0007449407 394.102337993 30.8621463944 368.423828125 11.2880859375 c 0
 353.811523438 0.1533203125 340.263671875 -8.9580078125 338.327148438 -8.9580078125 c 0
 336.206054688 -8.9580078125 334.806640625 6.0068359375 334.806640625 28.89453125 c 0x84
 334.806640625 49.712890625 332.508789062 72.0283203125 329.700195312 261.81640625 c 0x88
 326.892578125 451.60546875 323.600585938 684.123046875 320.158203125 812.379882812 c 1
 374.13671875 846.587890625 l 2x90
198.991210938 953.114257812 m 1
 253.596679688 986.780273438 l 1
 305.307617188 967.579101562 l 2
 333.74609375 957.026367188 358.596679688 947 360.526367188 945.315429688 c 0
 362.754882812 943.376953125 359.307617188 937.438476562 351.096679688 929.096679688 c 0
 338.658203125 916.456054688 336.561523438 915.701171875 296.7109375 909.692382812 c 0
 273.912109375 906.245117188 254.473632812 902.561523438 253.508789062 901.491210938 c 0
 252.543945312 900.4296875 249.88671875 857.456054688 247.596679688 806 c 0
 245.31640625 754.543945312 243.31640625 707.701171875 243.158203125 701.912109375 c 0
 239.473632812 601.912109375 l 1
 237.614257812 565.947265625 l 2xc0
 236.587890625 546.166015625 231.061523438 419.061523438 225.333984375 283.491210938 c 0
 219.60546875 147.920898438 214.912109375 34.630859375 214.912109375 31.736328125 c 0
 214.912109375 28.841796875 202.28125 17 186.842773438 5.4208984375 c 0
 171.67479263 -5.95508716779 161.836228048 -11.9402105509 158.393438813 -11.9402105509 c 0
 157.718715687 -11.9402105509 157.28964638 -11.710329366 157.114257812 -11.24609375 c 0
 156.2109375 -8.833984375 131.737304688 88.271484375 102.728515625 204.543945312 c 0
 73.728515625 320.815429688 50 416.736328125 50 417.701171875 c 0
 50 418.666015625 51.5791015625 419.456054688 53.5087890625 419.456054688 c 0
 55.4384765625 419.456054688 77.5439453125 402.876953125 102.631835938 382.614257812 c 0
 127.719726562 362.350585938 149.079101562 346.166015625 150.096679688 346.6484375 c 0
 150.404992248 346.793353204 150.551074965 356.618834754 150.551074965 373.852954938 c 0xa0
 150.551074965 413.99092305 149.75869886 494.314536292 148.377929688 586.123046875 c 0xc0
 146.412109375 717.350585938 144.7109375 846.03515625 144.38671875 919.456054688 c 1
 198.991210938 953.114257812 l 1
EndSplineSet
EndChar

StartChar: colon
Encoding: 58 58 73
Width: 263
Flags: W
VStem: 47.3555 171.419
LayerCount: 2
Fore
SplineSet
213.774414062 731.366210938 m 0
 216.485874371 694.761496767 218.774308881 661.5747029 218.774308881 656.60586348 c 0
 218.774308881 648.794028996 214.020309531 645.095100337 139.301757812 593.461914062 c 0
 95.5361328125 563.213867188 58.6572265625 538.434570312 57.35546875 538.391601562 c 0
 56.0458984375 538.354492188 54.9873046875 539.413085938 55 540.747070312 c 0
 55.005859375 542.0859375 88.0615234375 600.416015625 128.45703125 670.368164062 c 0
 168.846679688 740.327148438 202.697265625 798.412109375 203.67578125 799.452148438 c 0
 204.654296875 800.4921875 206.2265625 800.4609375 207.168945312 799.385742188 c 0
 208.110351562 798.30859375 211.083984375 767.69921875 213.774414062 731.366210938 c 0
203.774414062 471.366210938 m 4
 206.485874371 434.761496767 208.774308881 401.5747029 208.774308881 396.60586348 c 0
 208.774308881 388.794028996 204.020309531 385.095100337 129.301757812 333.461914062 c 4
 85.5361328125 303.213867188 48.6572265625 278.434570312 47.35546875 278.391601562 c 4
 46.0458984375 278.354492188 44.9873046875 279.413085938 45 280.747070312 c 4
 45.005859375 282.0859375 78.0615234375 340.416015625 118.45703125 410.368164062 c 4
 158.846679688 480.327148438 192.697265625 538.412109375 193.67578125 539.452148438 c 4
 194.654296875 540.4921875 196.2265625 540.4609375 197.168945312 539.385742188 c 4
 198.110351562 538.30859375 201.083984375 507.69921875 203.774414062 471.366210938 c 4
EndSplineSet
EndChar

StartChar: semicolon
Encoding: 59 59 74
Width: 263
Flags: W
VStem: 42.3555 181.419
LayerCount: 2
Fore
SplineSet
198.774414062 211.366210938 m 0
 201.485874371 174.761496767 203.774308881 141.5747029 203.774308881 136.60586348 c 0
 203.774308881 128.794028996 199.020309531 125.095100337 124.301757812 73.4619140625 c 0
 80.5361328125 43.2138671875 43.6572265625 18.4345703125 42.35546875 18.3916015625 c 0
 41.0458984375 18.3544921875 39.9873046875 19.4130859375 40 20.7470703125 c 0
 40.005859375 22.0859375 73.0615234375 80.416015625 113.45703125 150.368164062 c 0
 153.846679688 220.327148438 187.697265625 278.412109375 188.67578125 279.452148438 c 0
 189.654296875 280.4921875 191.2265625 280.4609375 192.168945312 279.385742188 c 0
 193.110351562 278.30859375 196.083984375 247.69921875 198.774414062 211.366210938 c 0
218.774414062 731.366210938 m 0
 221.485874371 694.761496767 223.774308881 661.5747029 223.774308881 656.60586348 c 0
 223.774308881 648.794028996 219.020309531 645.095100337 144.301757812 593.461914062 c 0
 100.536132812 563.213867188 63.6572265625 538.434570312 62.35546875 538.391601562 c 0
 61.0458984375 538.354492188 59.9873046875 539.413085938 60 540.747070312 c 0
 60.005859375 542.0859375 93.0615234375 600.416015625 133.45703125 670.368164062 c 0
 173.846679688 740.327148438 207.697265625 798.412109375 208.67578125 799.452148438 c 0
 209.654296875 800.4921875 211.2265625 800.4609375 212.168945312 799.385742188 c 0
 213.110351562 798.30859375 216.083984375 767.69921875 218.774414062 731.366210938 c 0
208.774414062 471.366210938 m 0
 211.485874371 434.761496767 213.774308881 401.5747029 213.774308881 396.60586348 c 0
 213.774308881 388.794028996 209.020309531 385.095100337 134.301757812 333.461914062 c 0
 90.5361328125 303.213867188 53.6572265625 278.434570312 52.35546875 278.391601562 c 0
 51.0458984375 278.354492188 49.9873046875 279.413085938 50 280.747070312 c 0
 50.005859375 282.0859375 83.0615234375 340.416015625 123.45703125 410.368164062 c 0
 163.846679688 480.327148438 197.697265625 538.412109375 198.67578125 539.452148438 c 0
 199.654296875 540.4921875 201.2265625 540.4609375 202.168945312 539.385742188 c 0
 203.110351562 538.30859375 206.083984375 507.69921875 208.774414062 471.366210938 c 0
EndSplineSet
EndChar

StartChar: at
Encoding: 64 64 75
Width: 495
Flags: W
VStem: 226.372 72.9507<522.468 733.721> 240.507 55.8652<737.788 949.041>
LayerCount: 2
Fore
SplineSet
266.73046875 975.96484375 m 2x40
 281.154296875 990.772460938 294.493164062 1002.08300781 296.372070312 1001.10449219 c 0x40
 298.229460106 1000.14231964 299.322798528 933.927920974 299.322798528 660.870825742 c 0
 299.322798528 611.335970099 299.286817839 554.994125242 299.212890625 491 c 1
 246.58203125 312.677734375 l 2
 217.630859375 214.600585938 192.61328125 130.422851562 190.970703125 125.615234375 c 0
 189.08203125 120.055664062 189.440429688 114.741210938 191.966796875 111 c 0
 195.026367188 106.471679688 216.3203125 101.952148438 285.096679688 91.2177734375 c 0
 329.215775226 84.3365475835 366.917823016 79.4220148556 374.90315574 79.4220148556 c 0
 375.793468075 79.4220148556 376.314378151 79.4831063826 376.43359375 79.609375 c 0
 377.630859375 80.876953125 381.564453125 93.5 385.174804688 107.66015625 c 0
 391.696289062 133.237304688 391.887695312 133.5 411.853515625 145.248046875 c 0
 422.911132812 151.759765625 432.579101562 156.690429688 433.338867188 156.208984375 c 0
 434.090820312 155.728515625 437.630859375 128.1328125 441.206054688 94.8896484375 c 0
 444.37505045 65.3358286999 445.989464963 50.2315067817 445.989464963 42.3336296423 c 0
 445.989464963 34.1317762553 444.248386635 33.7017712511 440.69921875 32.931640625 c 0
 436.853515625 32.1005859375 380.99609375 25.7900390625 199.431640625 6.4365234375 c 1
 90 116.874023438 l 1
 142.916015625 274.25390625 l 1
 142.680664062 274.331054688 142.444335938 274.408203125 142.20703125 274.486328125 c 2
 135.892578125 369.873046875 l 2
 132.430664062 422.338867188 128.951171875 467.201171875 128.16015625 469.563476562 c 0
 127.37890625 471.926757812 124.037109375 473.859375 120.729492188 473.850585938 c 0
 117.421875 473.850585938 101.571289062 465.963867188 85.505859375 456.333984375 c 0
 69.4404296875 446.703125 54.75 438.592773438 52.859375 438.30078125 c 0
 50.9697265625 438.017578125 49.70703125 440.096679688 50.05859375 442.931640625 c 0
 50.4111328125 445.766601562 70.9013671875 553.241210938 140.471679688 915.440429688 c 1
 159.612304688 954.263671875 l 2
 170.471679688 976.2734375 180.299804688 992.184570312 182.309570312 990.999023438 c 0
 184.501957324 989.719244126 185.546581049 892.548473461 185.546581049 689.654073073 c 0
 185.546581049 669.139120648 185.535901306 647.543299447 185.514648438 624.856445312 c 0
 185.418945312 526.732421875 185.245117188 453.328125 184.92578125 399.198242188 c 1
 226.372070312 522.467773438 l 1x80
 240.506835938 949.041015625 l 1
 266.73046875 975.96484375 l 2x40
EndSplineSet
EndChar

StartChar: numbersign
Encoding: 35 35 76
Width: 591
Flags: W
VStem: 159.463 108.895<865.697 926.169> 168.592 78.7324<195.7 679.184> 172.993 63.0615<165.352 393.533> 323.596 108.895<73.2471 133.719> 344.63 84.6475<316.569 810.752> 355.9 63.0612<605.883 834.064>
LayerCount: 2
Fore
SplineSet
213.010742188 960.25390625 m 2x80
 242.456054688 979.00390625 267.84375 994.452148438 269.427734375 994.584960938 c 0
 270.273500688 994.660001202 270.702987061 986.265121156 270.702987061 972.900915686 c 0
 270.702987061 961.220681217 270.374917285 945.74455104 269.709960938 928.809570312 c 0
 268.836475248 906.590254148 268.358366951 891.719431526 268.358366951 882.025666496 c 0
 268.358366951 869.621329354 269.141234743 865.694049974 270.880315192 865.694049974 c 0
 271.248011842 865.694049974 271.658454393 865.86961249 272.11328125 866.177734375 c 0
 274.868164062 868.043945312 307.21875 891.486328125 344.014648438 918.263671875 c 0
 380.819335938 945.041992188 411.3828125 965.702148438 411.954101562 964.170898438 c 0
 412.009284861 964.020841946 411.940413186 963.675856001 411.940413186 963.108916533 c 1
 413.595846735 964.060299518 414.728660156 964.584961425 415.193359375 964.584960938 c 0
 417.393554688 964.584960938 418.802734375 941.830078125 418.9609375 903.845703125 c 0x84
 419.092773438 870.438476562 421.073242188 717.666015625 423.362304688 564.356445312 c 0
 425.642578125 411.037109375 428.309570312 324.911132812 429.27734375 324.065429688 c 0x08
 430.24609375 323.229492188 451.63671875 316.08984375 476.8125 308.211914062 c 0
 520.430664062 294.567382812 523.044921875 293.211914062 541.954101562 265.1484375 c 1
 530.509765625 260.32421875 l 2
 524.215820312 257.666015625 498.608398438 247.762695312 428.116210938 221.133789062 c 1
 432.491210938 73.2470703125 l 1
 378.943359375 39.162109375 l 2
 349.498046875 20.412109375 324.110351562 4.9638671875 322.526367188 4.8310546875 c 0
 321.680600874 4.75601442312 321.251114502 13.1508944687 321.251114502 26.5150999386 c 0
 321.251114502 38.1953344081 321.579184278 53.6714645854 322.244140625 70.6064453125 c 0
 323.117626315 92.8257614772 323.595734611 107.696584099 323.595734611 117.390349129 c 0
 323.595734611 129.794686271 322.812866819 133.721965651 321.07378637 133.721965651 c 0
 320.706089721 133.721965651 320.29564717 133.546403135 319.840820312 133.23828125 c 0
 317.0859375 131.372070312 284.735351562 107.9296875 247.939453125 81.15234375 c 0
 211.134765625 54.3740234375 180.571289062 33.7138671875 180 35.2451171875 c 0
 179.944335938 35.3955078125 180.013671875 35.740234375 180.013671875 36.306640625 c 1
 178.358398438 35.35546875 177.225585938 34.8310546875 176.760742188 34.8310546875 c 0
 174.560546875 34.8310546875 173.151367188 57.5859375 172.993164062 95.5703125 c 0x30
 172.861328125 128.977539062 170.880859375 281.75 168.591796875 435.059570312 c 0x40
 166.311523438 588.37890625 163.64453125 674.504882812 162.676757812 675.350585938 c 0
 161.708007812 676.186523438 140.317382812 683.326171875 115.141601562 691.204101562 c 0
 71.5234375 704.848632812 68.9091796875 706.204101562 50 734.267578125 c 1
 61.4443359375 739.091796875 l 2
 67.73828125 741.75 93.345703125 751.653320312 163.837890625 778.282226562 c 1
 159.462890625 926.168945312 l 1
 213.010742188 960.25390625 l 2x80
355.899751667 834.064230045 m 1
 328.829101562 802.9296875 l 2
 296.83984375 766.133789062 268.609375 733.651367188 266.091796875 730.74609375 c 0
 262.650390625 726.767578125 258.01953125 684.576171875 247.32421875 438 c 0x44
 242.690429688 331.227539062 238.58203125 233.1796875 236.0546875 165.3515625 c 1
 263.125 196.486328125 l 2
 295.114257812 233.282226562 323.344726562 265.764648438 325.862304688 268.669921875 c 0
 329.303710938 272.6484375 333.934570312 314.83984375 344.629882812 561.416015625 c 0x28
 349.263686132 668.188014457 353.372033664 766.235937083 355.899751667 834.064230045 c 1
EndSplineSet
EndChar

StartChar: underscore
Encoding: 95 95 77
Width: 474
Flags: W
HStem: 6 86<117 301.494>
LayerCount: 2
Fore
SplineSet
356 104 m 6
 357.294921875 104.044921875 360.564453125 103.5 364.174804688 117.66015625 c 4
 370.696289062 143.237304688 370.887695312 143.5 390.853515625 155.248046875 c 4
 401.911132812 161.759765625 411.579101562 166.690429688 412.338867188 166.208984375 c 4
 413.090820312 165.728515625 416.630859375 138.1328125 420.206054688 104.889648438 c 4
 423.3751723 75.3346923291 424.989824139 57.8222629547 424.989824139 47.4718700851 c 0
 424.989824139 36.7239189382 423.248752706 33.6987578444 419.69921875 32.931640625 c 0
 415.853515625 32.1005859375 231.564453125 25.353515625 50 6 c 1
 117 92 l 5
 171 101 356 104 356 104 c 6
EndSplineSet
EndChar
